<svg width="1440" height="691" viewBox="0 0 1440 691" fill="none" xmlns="http://www.w3.org/2000/svg">
<g clip-path="url(#clip0_3781_549)">
<path fill-rule="evenodd" clip-rule="evenodd" d="M0 403L50 409C100 415 200 427 300 469C400 511 500 583 600 619C700 655 800 655 900 661C1000 667 1100 679 1150 685L1200 691V691H1150C1100 691 1000 691 900 691C800 691 700 691 600 691C500 691 400 691 300 691C200 691 100 691 50 691H0V403Z" fill="#9EBBFF"/>
<path opacity="0.8" fill-rule="evenodd" clip-rule="evenodd" d="M1440 259H1400C1360 259 1280 259 1200 281C1120 302 1040 345 960 345C880 345 800 302 720 338C640 374 560 489 480 547C400 605 320 605 240 590C160 576 80 547 40 533L0 518V691H40C80 691 160 691 240 691C320 691 400 691 480 691C560 691 640 691 720 691C800 691 880 691 960 691C1040 691 1120 691 1200 691C1280 691 1360 691 1400 691H1440V259Z" fill="#ECF2FF"/>
<g clip-path="url(#clip1_3781_549)">
<path d="M1203 661C1283.1 661 1348.03 657.219 1348.03 652.554C1348.03 647.89 1283.1 644.109 1203 644.109C1122.9 644.109 1057.97 647.89 1057.97 652.554C1057.97 657.219 1122.9 661 1203 661Z" fill="#F5F5F5"/>
<path opacity="0.1" d="M1118.7 593.591C1118.79 592.919 1119.14 592.306 1119.66 591.88C1120.19 591.454 1120.87 591.247 1121.54 591.3C1127.95 591.203 1133.94 595.717 1139.49 600.559C1140.73 601.626 1142.07 602.73 1143.45 601.611C1143.88 601.258 1144.19 600.785 1144.35 600.253C1144.59 599.384 1144.59 598.467 1144.35 597.597C1144.14 596.88 1143.8 596.208 1143.34 595.62C1140.92 592.449 1137.98 590.927 1135.6 587.652C1134.26 585.775 1133.15 583.747 1132.3 581.609C1131.55 579.728 1130.06 576.692 1130.65 574.148C1131.32 571.104 1133.6 571.365 1134.98 571.783C1139.36 573.088 1143.44 576.199 1147.15 580.072C1151.11 584.19 1154.69 589.152 1158.26 594.083C1159.61 595.956 1161.03 597.881 1162.75 598.56C1164.47 599.239 1166.65 598.142 1167.37 595.441C1168.1 592.74 1167.25 589.636 1167.07 586.951C1166.83 583.745 1166.98 580.523 1167.53 577.356C1167.77 575.681 1168.34 574.07 1169.2 572.611C1171.13 569.791 1173.99 570.783 1175.86 572.917C1177.28 574.702 1178.39 576.721 1179.12 578.885C1181.21 584.864 1182.47 591.103 1182.86 597.426C1183.14 601.343 1183.74 605.424 1185.35 608.46C1187.97 613.37 1192.83 612.982 1196.61 610.408C1203.19 605.931 1208.26 595.814 1209.61 584.503C1210.05 580.818 1210.17 576.834 1211.51 573.745C1212.69 571.074 1215.7 569.268 1217.17 572.148C1217.77 573.588 1217.93 575.168 1217.65 576.699C1217.39 578.216 1217.02 579.712 1216.54 581.176C1215.79 583.713 1215.04 588.465 1217.06 589.95C1217.36 590.132 1217.7 590.247 1218.05 590.286C1218.4 590.324 1218.76 590.286 1219.09 590.174C1225.7 588.801 1231.85 582.593 1235.89 573.931C1237.35 570.672 1238.47 567.268 1239.23 563.777C1239.71 561.643 1239.91 559.353 1240.45 557.234C1240.8 555.566 1241.5 553.992 1242.5 552.616C1245.08 549.542 1251.01 550.989 1251.35 557.577C1251.55 561.39 1250.54 565.12 1250.16 568.85C1249.93 571.178 1251.37 571.163 1252.45 571.089C1257.61 570.566 1262.17 565.374 1266.22 559.972C1271.03 553.548 1276.36 545.207 1282.92 544.961C1284.42 544.908 1286.91 545.102 1287.81 547.408C1288.22 548.82 1288.22 550.323 1287.81 551.735C1286.48 557.241 1282.57 560.084 1279.58 562.807C1271.14 570.699 1263.73 579.606 1257.49 589.323C1256.54 590.815 1255.56 593.277 1256.47 594.74C1256.64 595.018 1256.89 595.238 1257.19 595.371C1257.49 595.504 1257.83 595.544 1258.15 595.486C1261.24 595.247 1264.13 592.8 1266.95 590.771C1269.77 588.741 1272.98 586.965 1275.93 588.495C1276.84 589.04 1277.63 589.76 1278.26 590.613C1278.9 591.466 1279.35 592.435 1279.6 593.464C1280.13 595.268 1280.22 597.172 1279.85 599.015C1278.76 604.081 1274.08 606.356 1271.49 608.856C1267.94 612.275 1264.69 615.992 1261.77 619.965C1259.08 623.643 1256.53 627.672 1253.84 631.283C1244.12 644.213 1230.65 646.13 1218.69 647.63C1205.66 649.256 1192.61 648.376 1179.66 646.667C1170.25 645.414 1160.96 642.743 1151.77 639.572C1148.61 638.431 1145.48 637.185 1142.38 635.707C1139.05 634.126 1134.15 633.148 1132.88 626.919C1132.61 625.576 1132.92 624.486 1133.81 623.986C1136.57 622.42 1140.5 624.516 1143.1 625.896C1146.68 627.806 1150.08 630.53 1153.76 631.999C1154.35 632.289 1155 632.457 1155.65 632.491C1156.31 632.526 1156.97 632.427 1157.59 632.201C1158.2 631.947 1158.7 631.491 1159 630.91C1159.39 630.153 1159.49 629.279 1159.27 628.455C1159.12 628.011 1158.86 627.609 1158.52 627.284C1151.9 620.512 1143.99 615.13 1135.25 611.452C1132.44 610.251 1129.58 609.266 1126.88 607.565C1124.69 606.219 1122.81 604.441 1121.34 602.342C1120.08 600.335 1118.06 596.791 1118.7 593.591Z" fill="#407BFF"/>
<path opacity="0.1" d="M1261.77 538.746C1261.27 539.262 1260.62 539.602 1259.9 539.715C1259.19 539.827 1258.47 539.705 1257.83 539.368C1257.19 539.031 1256.69 538.497 1256.38 537.846C1256.08 537.195 1256 536.464 1256.15 535.761C1258.73 523.264 1264.34 514.177 1271.01 518.892C1275.99 522.406 1268.18 532.098 1261.77 538.746Z" fill="#407BFF"/>
<path opacity="0.3" d="M1243.67 544.581C1245.71 543.457 1247.44 541.847 1248.7 539.894C1249.97 537.941 1250.73 535.707 1250.92 533.389L1255.97 471.949C1256.24 468.791 1255.83 465.612 1254.79 462.619C1253.75 459.625 1252.09 456.882 1249.92 454.565L1234.34 437.92C1233.48 436.999 1232.83 435.911 1232.41 434.724C1232 433.538 1231.84 432.278 1231.94 431.026L1232.69 422.028L1192.36 418.723L1191.62 427.721C1191.51 428.973 1191.15 430.189 1190.55 431.293C1189.95 432.396 1189.12 433.363 1188.12 434.13L1170.02 448.029C1167.5 449.964 1165.42 452.401 1163.9 455.185C1162.39 457.969 1161.47 461.039 1161.21 464.197L1156.15 525.637C1155.95 527.952 1156.34 530.277 1157.27 532.407C1158.2 534.536 1159.64 536.404 1161.46 537.843C1159.42 538.966 1157.69 540.576 1156.43 542.529C1155.17 544.482 1154.41 546.718 1154.22 549.035L1147.77 627.374C1147.46 631.098 1148.65 634.791 1151.08 637.641C1153.5 640.49 1156.96 642.264 1160.69 642.572L1227.27 648.026C1229.11 648.178 1230.97 647.965 1232.74 647.4C1234.51 646.835 1236.14 645.928 1237.56 644.732C1238.97 643.535 1240.14 642.072 1240.99 640.427C1241.84 638.781 1242.35 636.985 1242.5 635.141L1248.96 556.801C1249.15 554.487 1248.78 552.161 1247.85 550.028C1246.93 547.896 1245.49 546.024 1243.67 544.581Z" fill="#407BFF"/>
<path opacity="0.3" d="M1192.38 418.736L1191.8 425.674L1232.12 428.98L1232.69 422.043L1192.38 418.736Z" fill="#407BFF"/>
<path opacity="0.3" d="M1249.55 456.169L1233.97 439.509C1233.97 439.509 1223.92 439.942 1231.72 452.23C1238.37 462.623 1249.96 461.004 1249.55 456.169Z" fill="white"/>
<path opacity="0.2" d="M1147.78 627.344C1147.47 631.068 1148.66 634.761 1151.09 637.611C1153.51 640.46 1156.97 642.234 1160.7 642.542L1227.27 647.996C1229.12 648.148 1230.98 647.935 1232.75 647.37C1234.51 646.805 1236.15 645.898 1237.57 644.702C1238.98 643.505 1240.15 642.042 1240.99 640.397C1241.84 638.751 1242.36 636.955 1242.51 635.111L1147.78 627.344Z" fill="#407BFF"/>
<path opacity="0.3" d="M1246.64 457.609C1248.38 459.47 1249.71 461.673 1250.55 464.077C1251.38 466.48 1251.71 469.032 1251.5 471.568L1246.44 533.016C1246.31 534.596 1245.79 536.118 1244.93 537.449C1244.06 538.779 1242.88 539.876 1241.49 540.641L1235.61 543.894L1240.88 548.065C1242.13 549.046 1243.11 550.319 1243.75 551.772C1244.38 553.225 1244.64 554.812 1244.51 556.391L1238.06 634.73C1237.85 637.269 1236.64 639.622 1234.7 641.272C1232.75 642.923 1230.23 643.736 1227.68 643.534L1161.11 638.08C1159.85 637.98 1158.62 637.633 1157.49 637.058C1156.36 636.483 1155.35 635.692 1154.53 634.73C1153.71 633.768 1153.08 632.653 1152.69 631.45C1152.3 630.246 1152.15 628.978 1152.25 627.717L1158.7 549.378C1158.83 547.798 1159.35 546.274 1160.21 544.942C1161.08 543.61 1162.26 542.512 1163.65 541.745L1169.53 538.492L1164.3 534.322C1163.05 533.341 1162.07 532.067 1161.43 530.614C1160.8 529.162 1160.53 527.575 1160.66 525.995L1165.73 464.555C1165.94 462.019 1166.68 459.554 1167.9 457.318C1169.12 455.083 1170.79 453.126 1172.81 451.573C1178.79 447.716 1194.5 457.318 1212.9 458.825C1231.29 460.332 1242.79 455.677 1246.64 457.609Z" fill="#407BFF"/>
<path opacity="0.2" d="M1212.86 458.832C1194.47 457.34 1178.75 447.716 1172.77 451.573C1183.24 457.318 1195.21 460.877 1212.57 462.302C1229.93 463.727 1246.64 457.609 1246.64 457.609C1242.79 455.677 1231.24 460.347 1212.86 458.832Z" fill="#407BFF"/>
<path opacity="0.2" d="M1156.15 525.637C1155.96 527.951 1156.35 530.277 1157.27 532.407C1158.2 534.536 1159.64 536.404 1161.47 537.843L1243.67 544.558C1245.71 543.435 1247.44 541.825 1248.7 539.872C1249.97 537.919 1250.73 535.684 1250.92 533.367L1156.15 525.637Z" fill="#407BFF"/>
<path d="M1233.53 411.039L1193.33 407.732C1191.65 407.593 1190.17 408.843 1190.03 410.523L1189.23 420.278C1189.09 421.958 1190.35 423.432 1192.03 423.571L1232.23 426.878C1233.92 427.016 1235.39 425.767 1235.53 424.087L1236.33 414.331C1236.47 412.652 1235.22 411.178 1233.53 411.039Z" fill="#407BFF"/>
<path opacity="0.2" d="M1194.07 422.065C1194.02 422.062 1193.97 422.048 1193.93 422.026C1193.88 422.003 1193.84 421.973 1193.81 421.935C1193.78 421.898 1193.76 421.854 1193.74 421.808C1193.73 421.761 1193.72 421.711 1193.72 421.662L1194.67 409.859C1194.68 409.76 1194.72 409.669 1194.8 409.604C1194.87 409.54 1194.97 409.508 1195.07 409.516C1195.17 409.524 1195.26 409.571 1195.33 409.646C1195.39 409.722 1195.42 409.82 1195.42 409.919L1194.44 421.715C1194.44 421.81 1194.4 421.899 1194.33 421.964C1194.26 422.029 1194.16 422.065 1194.07 422.065Z" fill="white"/>
<path opacity="0.2" d="M1201.36 422.662C1201.31 422.658 1201.26 422.645 1201.22 422.623C1201.18 422.6 1201.14 422.57 1201.11 422.532C1201.07 422.495 1201.05 422.451 1201.03 422.404C1201.02 422.358 1201.01 422.308 1201.02 422.259L1201.99 410.464C1202 410.365 1202.05 410.275 1202.12 410.21C1202.2 410.146 1202.3 410.114 1202.39 410.12C1202.44 410.124 1202.49 410.138 1202.53 410.16C1202.58 410.182 1202.62 410.213 1202.65 410.251C1202.68 410.288 1202.7 410.332 1202.72 410.379C1202.73 410.425 1202.74 410.475 1202.73 410.523L1201.74 422.319C1201.73 422.412 1201.68 422.498 1201.61 422.562C1201.55 422.625 1201.46 422.661 1201.36 422.662Z" fill="white"/>
<path opacity="0.2" d="M1208.65 423.289C1208.6 423.285 1208.55 423.272 1208.51 423.249C1208.46 423.227 1208.42 423.196 1208.39 423.159C1208.36 423.121 1208.34 423.078 1208.32 423.031C1208.31 422.984 1208.3 422.935 1208.3 422.886L1209.28 411.09C1209.29 410.993 1209.34 410.903 1209.41 410.839C1209.49 410.776 1209.58 410.743 1209.68 410.747C1209.73 410.751 1209.78 410.764 1209.82 410.786C1209.86 410.809 1209.9 410.84 1209.94 410.877C1209.97 410.914 1209.99 410.958 1210.01 411.005C1210.02 411.052 1210.03 411.101 1210.02 411.15L1209.05 422.946C1209.05 422.995 1209.03 423.042 1209.01 423.086C1208.99 423.13 1208.96 423.169 1208.92 423.201C1208.88 423.233 1208.84 423.257 1208.79 423.272C1208.75 423.287 1208.7 423.293 1208.65 423.289Z" fill="white"/>
<path opacity="0.2" d="M1215.94 423.856C1215.89 423.852 1215.84 423.839 1215.8 423.816C1215.76 423.794 1215.72 423.763 1215.68 423.726C1215.65 423.689 1215.63 423.645 1215.61 423.598C1215.6 423.551 1215.59 423.502 1215.6 423.453L1216.57 411.657C1216.58 411.559 1216.63 411.468 1216.7 411.404C1216.78 411.34 1216.87 411.308 1216.97 411.314C1217.02 411.318 1217.07 411.331 1217.11 411.354C1217.16 411.376 1217.2 411.407 1217.23 411.445C1217.26 411.482 1217.28 411.526 1217.3 411.573C1217.31 411.619 1217.31 411.669 1217.31 411.717L1216.34 423.513C1216.33 423.562 1216.32 423.609 1216.3 423.653C1216.28 423.697 1216.25 423.736 1216.21 423.768C1216.17 423.8 1216.13 423.824 1216.08 423.839C1216.04 423.854 1215.99 423.86 1215.94 423.856Z" fill="white"/>
<path opacity="0.2" d="M1223.2 424.453C1223.15 424.449 1223.1 424.436 1223.06 424.413C1223.01 424.391 1222.97 424.36 1222.94 424.323C1222.91 424.285 1222.88 424.242 1222.87 424.195C1222.85 424.148 1222.85 424.099 1222.85 424.05L1223.82 412.254C1223.84 412.157 1223.89 412.069 1223.96 412.005C1224.04 411.942 1224.13 411.908 1224.23 411.911C1224.28 411.915 1224.33 411.928 1224.37 411.951C1224.41 411.973 1224.45 412.004 1224.48 412.041C1224.52 412.079 1224.54 412.122 1224.56 412.169C1224.57 412.216 1224.58 412.265 1224.57 412.314L1223.6 424.11C1223.6 424.159 1223.58 424.207 1223.56 424.252C1223.54 424.296 1223.51 424.335 1223.47 424.367C1223.43 424.4 1223.39 424.424 1223.34 424.438C1223.3 424.453 1223.25 424.458 1223.2 424.453Z" fill="white"/>
<path opacity="0.2" d="M1230.52 425.05C1230.47 425.046 1230.42 425.033 1230.38 425.01C1230.33 424.988 1230.3 424.957 1230.26 424.92C1230.23 424.882 1230.21 424.839 1230.19 424.792C1230.18 424.745 1230.17 424.696 1230.18 424.647L1231.12 412.844C1231.13 412.745 1231.17 412.655 1231.25 412.591C1231.33 412.527 1231.42 412.494 1231.52 412.501C1231.62 412.51 1231.71 412.558 1231.77 412.633C1231.84 412.708 1231.87 412.806 1231.86 412.903L1230.89 424.707C1230.88 424.8 1230.84 424.886 1230.77 424.949C1230.7 425.013 1230.61 425.048 1230.52 425.05Z" fill="white"/>
<path opacity="0.2" d="M1168.59 505.112C1167.46 498.838 1158.29 499.285 1157.77 505.635L1156.12 525.637C1155.93 527.951 1156.32 530.277 1157.24 532.407C1158.17 534.536 1159.61 536.404 1161.44 537.843C1159.4 538.966 1157.67 540.576 1156.41 542.529C1155.14 544.482 1154.39 546.717 1154.2 549.035L1147.75 627.374C1147.44 631.098 1148.63 634.791 1151.06 637.641C1153.48 640.49 1156.94 642.264 1160.67 642.572L1177.87 643.982C1179.77 644.137 1181.68 643.855 1183.44 643.158C1185.21 642.461 1186.8 641.369 1188.08 639.964C1189.35 638.559 1190.29 636.881 1190.82 635.057C1191.34 633.234 1191.44 631.315 1191.1 629.448L1168.59 505.112Z" fill="#407BFF"/>
<path opacity="0.3" d="M1234.79 607.692C1234.67 609.13 1234.13 610.501 1233.23 611.631C1232.33 612.761 1231.11 613.6 1229.74 614.041C1228.36 614.482 1226.88 614.506 1225.49 614.109C1224.1 613.713 1222.86 612.914 1221.92 611.814C1220.99 610.713 1220.4 609.361 1220.23 607.927C1220.07 606.494 1220.33 605.044 1220.99 603.76C1221.65 602.476 1222.68 601.417 1223.94 600.716C1225.21 600.015 1226.65 599.703 1228.1 599.821C1230.03 599.981 1231.82 600.899 1233.08 602.375C1234.33 603.851 1234.95 605.763 1234.79 607.692Z" fill="#407BFF"/>
<path opacity="0.3" d="M1211.53 579.438C1211.45 580.456 1211.07 581.426 1210.43 582.226C1209.79 583.026 1208.93 583.62 1207.96 583.933C1206.99 584.245 1205.94 584.262 1204.96 583.982C1203.97 583.702 1203.09 583.137 1202.43 582.358C1201.77 581.579 1201.35 580.622 1201.23 579.607C1201.12 578.593 1201.3 577.566 1201.77 576.658C1202.24 575.75 1202.97 575 1203.86 574.504C1204.76 574.008 1205.78 573.788 1206.8 573.872C1208.17 573.986 1209.43 574.636 1210.32 575.679C1211.21 576.722 1211.64 578.074 1211.53 579.438Z" fill="#407BFF"/>
<path opacity="0.3" d="M1189.9 516.55C1188.87 516.597 1187.86 516.341 1186.98 515.815C1186.11 515.288 1185.41 514.514 1184.97 513.591C1184.54 512.667 1184.38 511.635 1184.54 510.626C1184.69 509.617 1185.14 508.675 1185.82 507.92C1186.51 507.164 1187.41 506.63 1188.4 506.383C1189.4 506.136 1190.44 506.188 1191.4 506.533C1192.37 506.877 1193.2 507.499 1193.81 508.319C1194.42 509.139 1194.77 510.121 1194.82 511.141C1194.86 511.819 1194.76 512.497 1194.53 513.136C1194.3 513.775 1193.94 514.363 1193.48 514.865C1193.03 515.368 1192.47 515.775 1191.86 516.064C1191.24 516.353 1190.58 516.518 1189.9 516.55Z" fill="#407BFF"/>
<path opacity="0.3" d="M1204.01 485.684C1203.29 485.72 1202.57 485.541 1201.94 485.17C1201.32 484.798 1200.82 484.25 1200.51 483.596C1200.2 482.942 1200.09 482.21 1200.2 481.495C1200.31 480.779 1200.63 480.111 1201.11 479.575C1201.6 479.039 1202.24 478.66 1202.94 478.485C1203.65 478.311 1204.39 478.348 1205.07 478.593C1205.75 478.838 1206.35 479.28 1206.78 479.862C1207.21 480.445 1207.45 481.141 1207.49 481.864C1207.53 482.83 1207.19 483.775 1206.54 484.491C1205.89 485.207 1204.98 485.636 1204.01 485.684Z" fill="#407BFF"/>
<path opacity="0.3" d="M1226.72 557.122C1226.68 557.542 1226.52 557.942 1226.26 558.272C1226 558.602 1225.64 558.847 1225.24 558.976C1224.84 559.104 1224.41 559.111 1224 558.995C1223.59 558.879 1223.23 558.645 1222.96 558.323C1222.68 558.002 1222.51 557.606 1222.46 557.187C1222.41 556.769 1222.49 556.345 1222.68 555.97C1222.88 555.594 1223.18 555.285 1223.55 555.079C1223.92 554.874 1224.34 554.783 1224.76 554.817C1225.33 554.864 1225.85 555.134 1226.22 555.566C1226.58 555.998 1226.76 556.557 1226.72 557.122Z" fill="#407BFF"/>
<path opacity="0.7" d="M1187.97 615.496H1187.61C1187.04 615.457 1186.48 615.305 1185.97 615.049C1185.45 614.793 1185 614.438 1184.62 614.004C1184.25 613.572 1183.97 613.071 1183.8 612.531C1183.63 611.99 1183.56 611.421 1183.61 610.856C1183.68 610.02 1183.99 609.222 1184.51 608.56C1185.03 607.898 1185.73 607.401 1186.52 607.128C1187.32 606.856 1188.17 606.82 1188.99 607.026C1189.8 607.231 1190.54 607.669 1191.11 608.286C1191.68 608.902 1192.06 609.671 1192.2 610.499C1192.34 611.326 1192.23 612.176 1191.9 612.944C1191.56 613.713 1191.01 614.367 1190.3 614.827C1189.6 615.286 1188.78 615.532 1187.94 615.533L1187.97 615.496ZM1187.97 607.409C1187.12 607.413 1186.3 607.706 1185.64 608.24C1184.98 608.774 1184.52 609.517 1184.34 610.347C1184.16 611.176 1184.26 612.042 1184.64 612.801C1185.02 613.561 1185.65 614.169 1186.42 614.525C1187.19 614.881 1188.06 614.964 1188.89 614.76C1189.72 614.556 1190.45 614.077 1190.96 613.403C1191.48 612.728 1191.75 611.898 1191.73 611.05C1191.71 610.202 1191.4 609.386 1190.85 608.737C1190.53 608.359 1190.14 608.049 1189.7 607.823C1189.26 607.598 1188.78 607.462 1188.29 607.423L1187.97 607.409Z" fill="white"/>
<path opacity="0.7" d="M1234.24 528.189H1233.97C1233.14 528.121 1232.37 527.726 1231.83 527.093C1231.29 526.459 1231.03 525.638 1231.09 524.809C1231.16 523.979 1231.56 523.21 1232.2 522.672C1232.83 522.133 1233.66 521.869 1234.49 521.937C1235.32 522.005 1236.09 522.399 1236.63 523.033C1237.17 523.667 1237.44 524.488 1237.37 525.317C1237.3 526.146 1236.9 526.915 1236.27 527.458C1235.7 527.935 1234.98 528.194 1234.24 528.189ZM1231.66 524.839C1231.62 525.346 1231.73 525.853 1231.98 526.296C1232.23 526.739 1232.61 527.099 1233.07 527.329C1233.52 527.559 1234.03 527.65 1234.54 527.591C1235.05 527.532 1235.52 527.324 1235.91 526.995C1236.17 526.776 1236.39 526.508 1236.54 526.206C1236.7 525.904 1236.79 525.575 1236.82 525.237C1236.85 524.899 1236.81 524.558 1236.7 524.235C1236.6 523.912 1236.43 523.613 1236.21 523.354C1235.98 523.103 1235.71 522.9 1235.4 522.756C1235.09 522.613 1234.76 522.532 1234.42 522.519C1234.08 522.49 1233.74 522.528 1233.41 522.632C1233.09 522.735 1232.79 522.901 1232.53 523.12C1232.27 523.339 1232.06 523.607 1231.9 523.908C1231.75 524.21 1231.65 524.539 1231.63 524.876L1231.66 524.839Z" fill="white"/>
<path opacity="0.7" d="M1185.91 462.04H1185.8C1185.41 462.002 1185.05 461.816 1184.8 461.521C1184.55 461.226 1184.42 460.845 1184.45 460.459C1184.47 460.169 1184.57 459.89 1184.75 459.658C1184.92 459.426 1185.16 459.25 1185.44 459.151C1185.71 459.053 1186.01 459.037 1186.29 459.105C1186.58 459.173 1186.83 459.322 1187.03 459.534C1187.23 459.746 1187.37 460.012 1187.42 460.299C1187.47 460.585 1187.43 460.88 1187.32 461.147C1187.2 461.414 1187.01 461.641 1186.77 461.802C1186.52 461.962 1186.24 462.047 1185.95 462.048L1185.91 462.04ZM1185 460.504C1184.99 460.681 1185.03 460.859 1185.12 461.015C1185.2 461.17 1185.33 461.297 1185.49 461.378C1185.65 461.459 1185.83 461.492 1186.01 461.472C1186.19 461.451 1186.35 461.379 1186.49 461.264C1186.63 461.148 1186.73 460.995 1186.78 460.824C1186.82 460.653 1186.82 460.471 1186.77 460.301C1186.71 460.131 1186.61 459.981 1186.47 459.87C1186.33 459.758 1186.16 459.691 1185.98 459.675C1185.86 459.664 1185.74 459.677 1185.63 459.713C1185.52 459.748 1185.41 459.807 1185.32 459.884C1185.23 459.961 1185.15 460.055 1185.1 460.162C1185.04 460.268 1185.01 460.384 1185 460.504Z" fill="white"/>
<path opacity="0.7" d="M1218.98 500.681H1218.67C1218.18 500.642 1217.7 500.507 1217.26 500.282C1216.82 500.058 1216.43 499.748 1216.11 499.372C1215.79 498.996 1215.55 498.561 1215.4 498.092C1215.25 497.622 1215.19 497.128 1215.24 496.637C1215.3 495.916 1215.57 495.23 1216.02 494.661C1216.47 494.092 1217.07 493.666 1217.76 493.433C1218.45 493.2 1219.19 493.172 1219.89 493.351C1220.59 493.529 1221.23 493.908 1221.72 494.441C1222.21 494.973 1222.53 495.636 1222.65 496.35C1222.77 497.063 1222.68 497.796 1222.39 498.458C1222.1 499.121 1221.62 499.685 1221.02 500.083C1220.41 500.48 1219.7 500.693 1218.98 500.695L1218.98 500.681ZM1218.98 493.742C1218.23 493.739 1217.5 494.003 1216.93 494.488C1216.28 495.033 1215.88 495.811 1215.81 496.652C1215.76 497.173 1215.85 497.697 1216.06 498.177C1216.27 498.657 1216.59 499.079 1217 499.404C1217.42 499.729 1217.9 499.948 1218.42 500.042C1218.93 500.136 1219.46 500.101 1219.96 499.942C1220.46 499.782 1220.92 499.502 1221.28 499.126C1221.65 498.751 1221.91 498.291 1222.06 497.788C1222.2 497.285 1222.22 496.754 1222.11 496.242C1222 495.731 1221.77 495.254 1221.43 494.854C1221.16 494.534 1220.83 494.27 1220.45 494.08C1220.08 493.889 1219.67 493.774 1219.25 493.742H1218.98Z" fill="white"/>
<path opacity="0.3" d="M1249.67 533.3L1254.5 474.709C1254.53 474.335 1254.49 473.958 1254.37 473.601C1254.26 473.243 1254.07 472.912 1253.83 472.626C1253.58 472.339 1253.29 472.104 1252.95 471.933C1252.62 471.762 1252.25 471.658 1251.87 471.628C1251.5 471.596 1251.12 471.639 1250.76 471.753C1250.41 471.867 1250.07 472.051 1249.79 472.293C1249.5 472.536 1249.26 472.833 1249.09 473.167C1248.92 473.501 1248.82 473.865 1248.79 474.239L1243.95 532.829C1243.8 534.777 1243.16 536.655 1242.09 538.296C1241.03 539.937 1239.57 541.289 1237.86 542.23L1234.92 543.864L1237.56 545.946C1239.1 547.155 1240.31 548.725 1241.09 550.516C1241.88 552.308 1242.2 554.264 1242.05 556.212L1235.59 634.551C1235.2 639.252 1232.24 641.542 1228.07 643.37C1227.81 643.488 1227.59 643.69 1227.45 643.945C1227.32 644.2 1227.27 644.492 1227.32 644.777C1227.37 645.062 1227.51 645.323 1227.72 645.52C1227.93 645.716 1228.2 645.836 1228.49 645.862C1231.63 646.118 1234.75 645.12 1237.15 643.087C1239.55 641.054 1241.05 638.153 1241.31 635.021L1247.76 556.682C1247.92 554.734 1247.59 552.777 1246.81 550.986C1246.03 549.194 1244.81 547.624 1243.27 546.416L1240.63 544.327L1243.57 542.7C1245.29 541.757 1246.74 540.405 1247.8 538.765C1248.87 537.124 1249.51 535.247 1249.67 533.3Z" fill="white"/>
<path opacity="0.3" d="M1327.31 624.352C1326.5 620.696 1316.42 622.86 1314.33 623.196C1310.28 623.93 1306.31 625.072 1302.48 626.605C1298.27 628.254 1293.38 630.679 1289.02 628.172C1286.5 626.725 1295.25 623.867 1296.04 623.576C1299.76 622.273 1303.35 620.63 1306.77 618.667C1308.15 617.846 1310.83 615.884 1309.68 613.892C1308.72 612.243 1305.29 612.4 1303.2 612.653C1296.88 613.426 1290.68 614.977 1284.73 617.272C1278.96 619.561 1273.3 622.144 1267.78 625.009C1265.65 626.211 1263.32 627.046 1260.91 627.478C1258.28 627.851 1255.05 627.292 1254.01 625.837C1252.97 624.382 1254.31 622.681 1254.62 621.219C1255.05 619.47 1254.87 617.626 1254.1 615.996C1253.59 614.903 1252.74 614.007 1251.67 613.444C1248.82 611.952 1244.51 612.504 1241.65 613.683C1239.79 614.467 1238.1 615.585 1236.65 616.981C1233.72 619.695 1231.67 623.213 1230.75 627.09C1230.52 628.305 1230.05 629.461 1229.37 630.494C1228.69 631.528 1227.81 632.417 1226.79 633.111C1222.78 635.805 1215.43 635.648 1209.81 634.297C1200.01 631.977 1192.53 626.553 1190.73 620.428C1189.85 617.51 1189.42 614.459 1185.49 613.317C1182.95 612.571 1177.62 613.094 1178.76 616.302C1179.17 617.181 1179.71 617.995 1180.36 618.719C1181.4 620.084 1182.5 622.658 1179.42 623.487C1178.42 623.698 1177.39 623.749 1176.37 623.636C1166.44 622.972 1157.3 619.667 1151.37 615.011C1149.44 613.497 1147.8 611.644 1146.54 609.542C1145.84 608.386 1145.58 607.14 1144.81 605.998C1144.08 604.9 1143.04 604.037 1141.82 603.514C1138.01 601.88 1129.05 602.73 1128.42 606.312C1128.08 608.252 1129.29 610.355 1129.91 612.198C1130.02 612.431 1130.05 612.695 1129.99 612.944C1129.81 613.414 1129.1 613.549 1128.49 613.586C1120.48 614.116 1112.71 611.012 1105.98 607.774C1098.86 604.342 1091.02 599.873 1081.13 599.821C1079.08 599.728 1077.03 599.962 1075.06 600.515C1074.56 600.647 1074.1 600.887 1073.7 601.216C1073.46 601.467 1073.3 601.785 1073.24 602.128C1073.18 602.471 1073.23 602.824 1073.37 603.141C1073.69 603.798 1074.17 604.367 1074.76 604.797C1077.75 607.229 1081.94 608.214 1085.77 609.468C1097.11 613.134 1108.07 617.868 1118.51 623.606C1119.57 624.195 1121.44 625.561 1119.96 626.59C1118.48 627.62 1115.47 626.956 1113.7 626.665C1110.48 626.143 1107.39 625.307 1104.26 624.524C1100.11 623.479 1095.28 622.532 1090.79 623.397C1088.42 623.852 1086.3 624.822 1085.19 626.135C1084.81 626.519 1084.55 627.015 1084.47 627.55C1084.38 628.086 1084.47 628.635 1084.71 629.12C1086.25 631.858 1093.28 633.037 1097.11 634.342C1102.03 636.015 1106.83 637.991 1111.5 640.259C1115.48 642.228 1119.19 644.385 1123.23 646.317C1137.65 653.218 1157.81 654.106 1175.83 654.778C1195.39 655.524 1215.04 654.89 1234.54 653.808C1248.76 653.017 1262.71 651.457 1276.63 649.622C1280.63 649.1 1284.61 648.458 1288.6 647.914C1292.65 647.451 1296.65 646.66 1300.57 645.548C1301.98 645.19 1303.29 644.534 1304.42 643.624C1305.49 642.631 1305.83 641.333 1303.91 640.96C1299.9 640.162 1295.77 641.072 1291.85 641.781C1287.46 642.587 1283.1 643.514 1278.78 644.564C1276.81 645.087 1274.81 645.494 1272.8 645.78C1270.77 646.064 1268.7 645.932 1266.73 645.392C1266.09 645.19 1265.38 644.832 1265.35 644.265C1265.31 643.698 1265.85 643.34 1266.4 643.124C1274.47 639.93 1283.04 637.901 1291.68 636.036C1297.53 634.767 1303.49 633.992 1309.4 632.999C1314.77 632.096 1320.44 631.888 1325.1 628.485C1326.03 627.888 1326.75 627.021 1327.17 626.001C1327.37 625.476 1327.42 624.904 1327.31 624.352Z" fill="#407BFF"/>
<path opacity="0.3" d="M1095.85 594.143C1093.66 587.928 1085.85 576.923 1084.2 583.422C1083.32 587.07 1095.85 594.143 1095.85 594.143Z" fill="#407BFF"/>
<path opacity="0.3" d="M1291.96 606.378C1296.13 602.581 1301.34 600.321 1302.01 603.663C1302.64 606.826 1291.96 606.378 1291.96 606.378Z" fill="#407BFF"/>
<path opacity="0.3" d="M1120.72 576.177C1117.86 574.685 1115.63 572.29 1117.31 571.29C1118.98 570.291 1120.72 576.177 1120.72 576.177Z" fill="#407BFF"/>
</g>
</g>
<g clip-path="url(#clip2_3781_549)">
<path d="M1358.95 15.1488C1358.73 17.9081 1357.69 20.5381 1355.96 22.7062C1354.24 24.8743 1351.92 26.4833 1349.28 27.3297C1346.64 28.1761 1343.82 28.2219 1341.15 27.4614C1338.49 26.7008 1336.12 25.1681 1334.32 23.0568C1332.53 20.9456 1331.41 18.3507 1331.09 15.6002C1330.78 12.8498 1331.28 10.0673 1332.55 7.60446C1333.81 5.14163 1335.78 3.10908 1338.2 1.76381C1340.62 0.418552 1343.38 -0.179051 1346.14 0.046575C1349.84 0.352964 1353.27 2.11548 1355.67 4.94706C1358.07 7.77864 1359.25 11.4478 1358.95 15.1488Z" fill="#ECF2FF"/>
<path d="M619.954 34.1488C619.727 36.9081 618.686 39.5381 616.965 41.7062C615.243 43.8743 612.917 45.4833 610.281 46.3297C607.645 47.1761 604.817 47.2219 602.154 46.4614C599.492 45.7008 597.115 44.1681 595.324 42.0568C593.533 39.9456 592.408 37.3507 592.092 34.6002C591.775 31.8498 592.281 29.0673 593.546 26.6045C594.811 24.1416 596.778 22.1091 599.198 20.7638C601.618 19.4186 604.382 18.8209 607.141 19.0466C610.842 19.353 614.27 21.1155 616.672 23.9471C619.075 26.7786 620.255 30.4478 619.954 34.1488Z" fill="#ECF2FF"/>
<path d="M83.9703 128.739C83.8243 130.512 83.1556 132.203 82.0487 133.597C80.9418 134.991 79.4466 136.025 77.7519 136.569C76.0572 137.113 74.2393 137.143 72.5279 136.654C70.8165 136.165 69.2884 135.179 68.137 133.822C66.9856 132.465 66.2624 130.797 66.059 129.029C65.8556 127.261 66.1809 125.472 66.994 123.889C67.8071 122.305 69.0714 120.999 70.6271 120.134C72.1827 119.269 73.9599 118.885 75.7338 119.03C78.1129 119.227 80.3165 120.36 81.8608 122.18C83.4051 124.001 84.1638 126.359 83.9703 128.739Z" fill="#ECF2FF"/>
<path d="M120.954 334.149C120.727 336.908 119.686 339.538 117.965 341.706C116.243 343.874 113.917 345.483 111.281 346.33C108.645 347.176 105.817 347.222 103.154 346.461C100.492 345.701 98.1154 344.168 96.3242 342.057C94.5331 339.946 93.4082 337.351 93.0918 334.6C92.7753 331.85 93.2815 329.067 94.5463 326.604C95.8111 324.142 97.7778 322.109 100.198 320.764C102.618 319.419 105.382 318.821 108.141 319.047C111.842 319.353 115.27 321.115 117.672 323.947C120.075 326.779 121.255 330.448 120.954 334.149Z" fill="#C6D7FF"/>
<path d="M757.954 522.149C757.727 524.908 756.686 527.538 754.965 529.706C753.243 531.874 750.917 533.483 748.281 534.33C745.645 535.176 742.817 535.222 740.154 534.461C737.492 533.701 735.115 532.168 733.324 530.057C731.533 527.946 730.408 525.351 730.092 522.6C729.775 519.85 730.281 517.067 731.546 514.604C732.811 512.142 734.778 510.109 737.198 508.764C739.618 507.419 742.382 506.821 745.141 507.047C748.842 507.353 752.27 509.115 754.672 511.947C757.075 514.779 758.255 518.448 757.954 522.149Z" fill="#C6D7FF"/>
<path d="M1386.95 509.149C1386.73 511.908 1385.69 514.538 1383.96 516.706C1382.24 518.874 1379.92 520.483 1377.28 521.33C1374.64 522.176 1371.82 522.222 1369.15 521.461C1366.49 520.701 1364.12 519.168 1362.32 517.057C1360.53 514.946 1359.41 512.351 1359.09 509.6C1358.78 506.85 1359.28 504.067 1360.55 501.604C1361.81 499.142 1363.78 497.109 1366.2 495.764C1368.62 494.419 1371.38 493.821 1374.14 494.047C1377.84 494.353 1381.27 496.115 1383.67 498.947C1386.07 501.779 1387.25 505.448 1386.95 509.149Z" fill="#C6D7FF"/>
<path opacity="0.7" d="M732.199 120.836H730.624C728.112 120.663 725.658 119.994 723.406 118.868C721.153 117.741 719.146 116.18 717.5 114.273C715.881 112.373 714.656 110.171 713.896 107.793C713.135 105.416 712.855 102.911 713.071 100.425C713.376 96.7482 714.746 93.2401 717.012 90.3289C719.278 87.4176 722.342 85.2292 725.831 84.0306C729.32 82.832 733.082 82.6753 736.658 83.5794C740.234 84.4835 743.47 86.4093 745.97 89.1219C748.471 91.8345 750.127 95.2164 750.738 98.8548C751.349 102.493 750.887 106.231 749.409 109.611C747.931 112.992 745.502 115.869 742.416 117.891C739.331 119.913 735.724 120.994 732.035 121L732.199 120.836ZM732.199 85.2642C728.468 85.2827 724.854 86.5731 721.954 88.9223C719.055 91.2716 717.042 94.5393 716.25 98.1863C715.457 101.833 715.931 105.642 717.594 108.983C719.257 112.324 722.009 114.998 725.396 116.565C728.783 118.131 732.603 118.495 736.225 117.598C739.847 116.7 743.055 114.595 745.32 111.628C747.585 108.662 748.77 105.012 748.681 101.281C748.593 97.5499 747.234 93.9605 744.831 91.1053C743.431 89.4456 741.715 88.0805 739.783 87.0891C737.851 86.0977 735.742 85.4997 733.577 85.3298L732.199 85.2642Z" fill="#9EBBFF"/>
<path opacity="0.7" d="M228.157 166.87H226.914C224.93 166.734 222.993 166.206 221.215 165.317C219.436 164.427 217.852 163.194 216.553 161.689C215.275 160.189 214.307 158.451 213.707 156.574C213.107 154.697 212.885 152.72 213.056 150.756C213.297 147.854 214.378 145.084 216.167 142.786C217.956 140.488 220.375 138.76 223.13 137.814C225.884 136.867 228.854 136.744 231.677 137.457C234.501 138.171 237.055 139.692 239.029 141.833C241.003 143.975 242.311 146.645 242.793 149.517C243.275 152.389 242.911 155.34 241.744 158.009C240.577 160.678 238.659 162.949 236.223 164.545C233.788 166.142 230.94 166.995 228.028 167L228.157 166.87ZM228.157 138.788C225.211 138.802 222.358 139.821 220.069 141.676C217.78 143.53 216.191 146.11 215.566 148.989C214.94 151.868 215.314 154.875 216.627 157.513C217.94 160.15 220.112 162.262 222.786 163.498C225.46 164.735 228.476 165.023 231.336 164.314C234.195 163.606 236.728 161.943 238.516 159.601C240.304 157.259 241.24 154.378 241.17 151.432C241.099 148.487 240.027 145.653 238.13 143.399C237.024 142.089 235.67 141.011 234.145 140.228C232.62 139.446 230.954 138.973 229.245 138.839L228.157 138.788Z" fill="#9EBBFF"/>
<path opacity="0.7" d="M37.1992 581.836H35.6243C33.1117 581.663 30.6582 580.994 28.4055 579.868C26.1528 578.741 24.1457 577.18 22.5 575.273C20.8811 573.373 19.6559 571.171 18.8955 568.793C18.1351 566.416 17.8547 563.911 18.0706 561.425C18.3764 557.748 19.7459 554.24 22.0118 551.329C24.2777 548.418 27.3421 546.229 30.8308 545.031C34.3195 543.832 38.0817 543.675 41.658 544.579C45.2344 545.483 48.4702 547.409 50.9705 550.122C53.4707 552.835 55.1273 556.216 55.7379 559.855C56.3485 563.493 55.8868 567.231 54.4091 570.611C52.9314 573.992 50.5016 576.869 47.4164 578.891C44.3312 580.913 40.724 581.994 37.0352 582L37.1992 581.836ZM37.1992 546.264C33.4676 546.283 29.8538 547.573 26.9542 549.922C24.0546 552.272 22.0424 555.539 21.2497 559.186C20.4571 562.833 20.9312 566.642 22.594 569.983C24.2568 573.324 27.0089 575.998 30.396 577.565C33.7832 579.131 37.6031 579.495 41.2252 578.598C44.8474 577.7 48.0555 575.595 50.32 572.628C52.5845 569.662 53.7702 566.012 53.6814 562.281C53.5925 558.55 52.2345 554.961 49.8313 552.105C48.431 550.446 46.7151 549.081 44.7833 548.089C42.8514 547.098 40.742 546.5 38.5773 546.33L37.1992 546.264Z" fill="#C6D7FF"/>
<path opacity="0.7" d="M688.262 352.784H686.19C682.884 352.557 679.655 351.677 676.691 350.195C673.727 348.712 671.086 346.657 668.921 344.148C666.791 341.649 665.179 338.751 664.178 335.623C663.178 332.495 662.809 329.199 663.093 325.927C663.495 321.09 665.297 316.474 668.279 312.643C671.26 308.813 675.292 305.933 679.883 304.356C684.473 302.779 689.423 302.573 694.129 303.762C698.835 304.952 703.092 307.486 706.382 311.055C709.672 314.624 711.852 319.074 712.655 323.862C713.459 328.649 712.851 333.567 710.907 338.015C708.962 342.463 705.765 346.248 701.706 348.909C697.646 351.57 692.9 352.992 688.046 353L688.262 352.784ZM688.262 305.979C683.352 306.004 678.597 307.701 674.782 310.793C670.967 313.884 668.319 318.183 667.276 322.982C666.233 327.781 666.857 332.792 669.045 337.188C671.233 341.584 674.854 345.103 679.311 347.164C683.767 349.225 688.793 349.704 693.56 348.523C698.326 347.343 702.547 344.572 705.526 340.669C708.506 336.766 710.066 331.963 709.949 327.054C709.832 322.145 708.045 317.422 704.883 313.665C703.041 311.481 700.783 309.685 698.241 308.38C695.699 307.076 692.924 306.289 690.075 306.065L688.262 305.979Z" fill="#C6D7FF"/>
<path opacity="0.7" d="M1400.23 348.81H1398.41C1395.5 348.61 1392.66 347.836 1390.05 346.531C1387.44 345.227 1385.12 343.419 1383.21 341.211C1381.34 339.011 1379.92 336.461 1379.04 333.708C1378.16 330.956 1377.83 328.055 1378.08 325.176C1378.44 320.919 1380.02 316.857 1382.65 313.486C1385.27 310.115 1388.82 307.581 1392.86 306.193C1396.9 304.806 1401.25 304.624 1405.39 305.671C1409.53 306.718 1413.28 308.948 1416.18 312.089C1419.07 315.229 1420.99 319.145 1421.7 323.358C1422.4 327.571 1421.87 331.899 1420.16 335.813C1418.45 339.727 1415.63 343.058 1412.06 345.4C1408.49 347.742 1404.31 348.993 1400.04 349L1400.23 348.81ZM1400.23 307.622C1395.91 307.643 1391.73 309.137 1388.37 311.857C1385.01 314.578 1382.68 318.361 1381.76 322.584C1380.85 326.807 1381.39 331.217 1383.32 335.085C1385.24 338.954 1388.43 342.051 1392.35 343.864C1396.28 345.678 1400.7 346.1 1404.89 345.061C1409.09 344.022 1412.8 341.583 1415.42 338.149C1418.05 334.714 1419.42 330.488 1419.32 326.168C1419.21 321.847 1417.64 317.691 1414.86 314.385C1413.24 312.463 1411.25 310.883 1409.01 309.735C1406.78 308.587 1404.33 307.894 1401.83 307.698L1400.23 307.622Z" fill="#9EBBFF"/>
</g>
<defs>
<clipPath id="clip0_3781_549">
<rect width="1440" height="432" fill="white" transform="translate(0 259)"/>
</clipPath>
<clipPath id="clip1_3781_549">
<rect width="374" height="278" fill="white" transform="translate(1016 383)"/>
</clipPath>
<clipPath id="clip2_3781_549">
<rect width="1404" height="582" fill="white" transform="translate(18)"/>
</clipPath>
</defs>
</svg>
