<!-- Generated by IcoMoon.io -->
<svg version="1.1" xmlns="http://www.w3.org/2000/svg" width="1024" height="1024" viewBox="0 0 1024 1024">
<title></title>
<g id="icomoon-ignore">
</g>
<path fill="none" stroke="#407bff" stroke-linejoin="round" stroke-linecap="round" stroke-miterlimit="4" stroke-width="64" d="M288 128v96M736 128v96M128 800v-480c0-25.461 10.114-49.879 28.118-67.882s42.421-28.118 67.882-28.118h576c25.462 0 49.878 10.114 67.882 28.118s28.118 42.421 28.118 67.882v480M128 800c0 25.462 10.114 49.878 28.118 67.882s42.421 28.118 67.882 28.118h576c25.462 0 49.878-10.115 67.882-28.118s28.118-42.419 28.118-67.882M128 800v-320c0-25.459 10.114-49.878 28.118-67.882s42.421-28.118 67.882-28.118h576c25.462 0 49.878 10.115 67.882 28.118s28.118 42.422 28.118 67.882v320M512 544h0.342v0.342h-0.342v-0.342zM512 640h0.342v0.342h-0.342v-0.342zM512 736h0.342v0.342h-0.342v-0.342zM416 640h0.342v0.342h-0.342v-0.342zM416 736h0.342v0.342h-0.342v-0.342zM320 640h0.342v0.342h-0.342v-0.342zM320 736h0.342v0.342h-0.342v-0.342zM608 544h0.342v0.342h-0.342v-0.342zM608 640h0.342v0.342h-0.342v-0.342zM608 736h0.342v0.342h-0.342v-0.342zM704 544h0.342v0.342h-0.342v-0.342zM704 640h0.342v0.342h-0.342v-0.342z"></path>
</svg>
