<svg xmlns="http://www.w3.org/2000/svg" width="16" height="16" viewBox="0 0 16 16" fill="none">
<path d="M2.65334 5.482C2.02964 6.21812 1.56521 7.07547 1.28934 8C2.15067 10.892 4.82934 13 8 13C8.662 13 9.302 12.908 9.90867 12.7367M4.152 4.152C5.29375 3.39854 6.63205 2.99788 8 3C11.1707 3 13.8487 5.108 14.71 7.99867C14.2379 9.5782 13.2247 10.941 11.848 11.848M4.152 4.152L2 2M4.152 4.152L6.58534 6.58533M11.848 11.848L14 14M11.848 11.848L9.41467 9.41467C9.6004 9.22893 9.74773 9.00844 9.84825 8.76577C9.94877 8.52309 10.0005 8.263 10.0005 8.00033C10.0005 7.73767 9.94877 7.47757 9.84825 7.2349C9.74773 6.99223 9.6004 6.77173 9.41467 6.586C9.22894 6.40027 9.00844 6.25294 8.76577 6.15242C8.5231 6.0519 8.263 6.00016 8.00034 6.00016C7.73767 6.00016 7.47758 6.0519 7.2349 6.15242C6.99223 6.25294 6.77174 6.40027 6.586 6.586M9.414 9.414L6.58667 6.58667" stroke="#407BFF" stroke-linecap="round" stroke-linejoin="round"/>
</svg>