<svg viewBox="0 0 20 18"  xmlns="http://www.w3.org/2000/svg">
<path d="M19.5014 10.069V17.499H16.5514V11.429C16.5514 10.3287 16.2216 9.46791 15.6696 8.88353C15.1183 8.29984 14.3804 8.03078 13.6486 8.05686C12.1671 8.10966 10.7814 9.35023 10.7814 11.429V17.499H7.84141V5.97905H10.8094L10.7815 7.14715L11.7199 7.39928C12.065 6.76931 12.711 6.25333 13.5268 5.93326C14.34 5.61423 15.2862 5.50515 16.1802 5.65699C17.0712 5.80832 17.8936 6.215 18.4935 6.91156C19.0905 7.60494 19.5014 8.62547 19.5014 10.069ZM4.44141 1.9988C4.44121 2.39662 4.28298 2.77807 4.00154 3.05924C3.72009 3.3404 3.33848 3.49825 2.94066 3.49805C2.54283 3.49785 2.16138 3.33962 1.88022 3.05818C1.59905 2.77673 1.44121 2.39512 1.44141 1.9973C1.44161 1.59947 1.59983 1.21802 1.88128 0.936856C2.16272 0.655693 2.54433 0.497848 2.94216 0.498047C3.33998 0.498246 3.72143 0.656472 4.0026 0.937917C4.28376 1.21936 4.44161 1.60097 4.44141 1.9988ZM1.50141 17.499V5.97905H4.50141V17.499H1.50141Z" stroke="white"/>
</svg>
