<!-- Generated by IcoMoon.io -->
<svg version="1.1" xmlns="http://www.w3.org/2000/svg" width="853" height="1024" viewBox="0 0 853 1024">
<title></title>
<g id="icomoon-ignore">
</g>
<path fill="#9ebbff" d="M337.491 156.119c14.366-11.301 32.516 13.182 34.43 35.785s-18.17 73.451-74.59 86.633c-56.42 13.182-63.117 48.023-61.203 68.74 1.914 20.719-7.648 43.317-27.733 38.613-20.084-4.702-21.994-35.785-3.824-64.992 18.17-29.21 64.061-55.558 71.721-71.571 7.661-16.011 1.914-34.839 17.212-41.431 15.296-6.591 35.383 10.357 33.47 26.38 0 0 15.3-15.063 13.387-37.666-1.254-14.838-10.078-34.81-2.869-40.491z"></path>
<path fill="#9ebbff" d="M708.527 293.619c5.31-15.102 43.034-6.592 51.635 14.123 8.604 20.715 5.739 36.725 14.342 50.848s-15.296 37.666-33.001 34.839c-17.705-2.825-10.999-34.839-10.999-48.966s-30.581-26.377-21.978-50.844z"></path>
<path fill="#9ebbff" d="M588.981 115.788c13.092-11.519 41.12 8.315 48.772 24.323s0.956 58.384-22.477 57.443c-23.43-0.94-14.108-34.072-22.47-40.973-14.807-12.234-14.332-31.537-3.825-40.793z"></path>
<path fill="#9ebbff" d="M427.558 17.693c9.282 14.367 2.377 33.9-21.21 38.297s-28.051-15.082-40.806-10.674c-12.753 4.408-26.788 7.532-32.512-2.512-5.722-10.044 0.638-25.111 26.138-25.111s51.349-26.368 68.39 0z"></path>
<path fill="#9ebbff" d="M279.157 154.96c11.091 0 20.081-9.537 20.081-21.303s-8.99-21.303-20.081-21.303c-11.089 0-20.079 9.537-20.079 21.303s8.99 21.303 20.079 21.303z"></path>
<path fill="#9ebbff" d="M192.059 225.491c-7.132-3.541-30.52 33.261-14.583 37.664 15.937 4.405 25.978-32.019 14.583-37.664z"></path>
<path fill="#9ebbff" d="M129.661 334.722c0 0 31.238 16.951 19.762 51.793-11.477 34.839-36.336 30.447-43.989 19.772-7.652-10.673-7.648-25.109 5.102-35.172s19.125-36.393 19.125-36.393z"></path>
<path fill="#9ebbff" d="M792.681 522.428c0 0 9.564 14.146 4.785 39.55-4.781 25.406-12.425 75.317 14.34 89.463 26.767 14.146 37.295-35.782 26.79-50.848-10.507-15.068 5.726-66.88-45.916-78.165z"></path>
<path fill="#9ebbff" d="M826.63 749.372c11.356 0 20.561-10.963 20.561-24.484 0-13.523-9.205-24.484-20.561-24.484-11.358 0-20.563 10.961-20.563 24.484 0 13.521 9.205 24.484 20.563 24.484z"></path>
<path fill="#9ebbff" d="M20.008 758.788c17.728-9.050 32.512 5.649 34.426 32.958s27.733 50.848 14.342 64.975c-13.391 14.127-28.952-44.256-41.119-49.675-18.667-8.311-33.471-35.076-7.649-48.258z"></path>
<path fill="#9ebbff" d="M773.013 786.093c-16.693 16.958 5.525 34.507-33.886 79.098-16.412 18.549 12.113 74.089-66.942 73.453 0 0-45.907 41.425-91.812 47.095-45.907 5.668-65.024-1.89-109.013 22.601-43.987 24.493-141.532-16.958-181.7-34.848-40.169-17.888-55.454-19.78-89.871-19.78s-21.035-52.74-45.907-75.343c-24.871-22.603-53.555-32.004-55.477-52.715-1.922-20.708-21.031-30.138-19.114-62.163 1.918-32.028-30.606-41.429-34.418-80.988-3.813-39.556 17.196-47.074 9.547-69.677s-9.547-41.423 1.918-64.026c1.363-2.739 2.947-5.365 4.737-7.853 9.827-13.794 19.257-12.723 25.865-35.465 7.652-26.379-13.383-37.668 9.57-48.962s30.606 22.583 17.2 56.495c-13.406 33.911-30.614 65.918-7.645 71.565s17.223-64.030 47.824-96.058c30.602-32.026 17.223-39.535 57.372-71.561 40.148-32.028 43.988-18.827 57.37-52.74 13.385-33.916 51.181-69.675 89.687-86.635 38.505-16.958 55.706-24.467 49.952-52.736-5.756-28.268 26.349-28.249 27.531-58.387 1.18-30.138-25.626-50.848-48.567-43.313s-45.905 7.532-38.253-16.937c7.652-24.468 55.821-22.602 78.588-11.313s41.909-16.933 72.514 11.313c30.605 28.246 70.754 37.67 65.024 103.608s-11.465 88.498 13.382 92.279c24.849 3.782 3.836-30.138 3.836-56.493 0-26.357 43.989-24.497 55.454-3.782s-3.812 56.495 7.652 69.696c11.465 13.201 32.523 11.29 38.255 30.116 5.73 18.825-3.814 96.055 22.953 113.011 26.765 16.956 21.035-41.423 43.989-23.535 22.953 17.888 28.683 49.897 15.3 81.92-8.93 21.408-9.845 74.842-4.659 120.845 2.519 22.761 6.539 43.727 11.787 58.067 15.806 43.294 16.653 77.186-0.043 94.146z"></path>
<path fill="#c6d7ff" d="M455.981 306.067c50.221-15.618 92.369 70.786 74.895 107.913-17.476 37.126-24.949 151.65 39.951 137.408 64.898-14.24 17.47-124.382 52.412-122.165 34.944 2.219 19.972 103.004 42.441 134.959 22.468 31.953 99.985 250.746-24.898 326.953-124.885 76.207-301.609 73.749-369.276 17.203-27.223-22.748-46.927-46.543-61.444-69.615-6.899-10.961-11.046-19.65-13.872-27.27-6.084-16.38-5.020-22.153-11.155-38.588-4.016-10.586-9.186-20.713-15.417-30.204-13.492-20.427-19.61-18.033-32.225-35.819-4.212-5.937-17.584-25.997-18.818-53.015-0.322-7.076-1.227-26.846 7.318-30.37 9.667-3.985 22.181 16.638 35.020 12.356 6.732-2.249 9.66-10.037 11.5-14.912 5.436-14.443 0-23.375-2.613-44.781-2.011-16.553-4.426-36.457 5.436-53.252 1.615-2.752 6.27-11.744 21.715-20.132 54.327-29.5 103.114-2.458 138.636-56.542 35.52-54.082 36.207-57.634 69.566-71.836 33.359-14.204 3.398-53.54 50.829-68.29z"></path>
<path fill="#407bff" d="M436.038 1024c-35.45 0-84.971-14.319-149.732-43.164-39.465-17.587-53.466-19.059-86.516-19.059-26.137 0-31.712-23.477-36.189-42.34-3.164-13.329-6.437-27.11-15.278-35.14-8.227-7.477-16.827-13.38-25.143-19.115-16.811-11.569-31.328-21.559-32.923-38.814-0.629-6.839-3.789-12.486-7.45-19.027-5.773-10.323-12.96-23.153-11.694-44.326 0.777-13.148-5.536-21.683-13.542-32.497-8.782-11.851-18.737-25.303-20.861-47.245-2.174-22.492 3.024-35.556 7.202-46.067 3.417-8.582 5.478-13.762 2.745-21.837-6.915-20.422-11.414-43.063 2.357-70.189 5.801-11.42 11.915-16.781 16.831-21.090 5.587-4.894 9.621-8.41 13.201-20.836 2.656-9.156 1.165-15.938-0.299-22.494-2.186-9.856-4.903-22.125 14.074-31.469 9.539-4.7 18.873-3.923 25.624 2.118 12.141 10.895 13.36 38.029 2.9 64.518-1.836 4.646-3.743 9.257-5.61 13.764-7.26 17.587-15.491 37.466-11.911 44.425 0.279 0.544 0.936 1.813 4.224 2.624 0.196 0.060 0.401 0.087 0.606 0.079 3.696-1.28 8.153-18.867 10.824-29.376 5.338-21.028 11.981-47.241 28.435-64.457 12.49-13.071 17.149-21.696 21.649-30.037 6.41-11.853 12.459-23.076 36.538-42.27 15.333-12.233 25.535-18.067 33.001-22.338 11.43-6.549 14.505-8.307 21.909-27.053 13.975-35.422 52.619-72.87 93.956-91.072l0.177-0.077c40.079-17.655 49.378-22.624 45.097-43.714-3.844-18.924 6.212-28.749 14.302-36.64 6.775-6.614 12.627-12.326 13.065-23.631 0.478-12.36-4.813-23.86-14.159-30.765-7.358-5.433-15.968-7.107-23.629-4.588-14.694 4.829-34.391 8.487-44.749-1.476-4.166-4.010-8.23-11.691-3.919-25.493 2.769-8.858 9.591-15.79 19.727-20.045 20.913-8.793 52.802-4.798 70.374 3.911 6.302 3.127 12.258 2.026 21.451-0.027 14.091-3.146 31.62-7.061 52.969 12.647 6.485 5.983 13.641 11.244 20.559 16.329 25.504 18.733 51.876 38.125 47.027 93.828-0.717 8.244-1.436 15.813-2.093 22.755-4.945 52.141-3.983 58.97 8.57 60.87 0.881 0.149 1.777 0.209 2.671 0.183 0.535-3.401-1.747-12.523-3.296-18.735-2.33-9.348-4.986-19.94-4.986-29.997 0-13.075 8.154-22.938 21.786-26.353 16.333-4.102 39.733 1.911 49.054 18.735 6.95 12.546 5.798 28.474 4.777 42.528-0.742 10.199-1.581 21.766 1.905 25.769 3.561 4.094 8.887 6.498 14.53 9.050 9.316 4.205 20.911 9.457 25.348 24.013 2.076 6.829 2.396 18.225 2.795 32.653 0.738 26.464 1.852 66.46 16.738 75.883 2.718 1.724 4.271 1.946 4.768 1.805 2.189-0.631 5.299-7.307 7.159-11.298 3.563-7.646 7.61-16.331 16.256-18.372 5.248-1.244 10.793 0.382 16.461 4.785 25.623 19.987 32.612 55.819 17.79 91.317-12.297 29.408-8.034 131.337 7.245 173.116 17.555 48.009 16.924 83.456-1.822 102.507-4.343 4.416-4.817 8.412-5.47 16.998-1.047 13.839-2.49 32.787-28.124 61.786-3.204 3.629-3.968 11.428-4.781 19.686-2.193 22.323-5.489 55.859-65.225 56.529-10.368 8.832-51.537 41.813-93.894 47.025-13.026 1.602-24.009 2.172-33.705 2.675-24.491 1.269-42.187 2.187-72.299 18.948-10.364 5.773-23.447 8.663-39.377 8.663zM104.84 462.37c-1.087 0-2.586 0.331-4.659 1.353-7.586 3.735-7.377 4.668-5.397 13.606 1.615 7.302 3.832 17.303 0.043 30.364-4.903 16.911-11.601 22.778-18.077 28.457-4.465 3.91-8.681 7.603-13.072 16.252-10.521 20.721-8.363 37.508-1.468 57.875 4.608 13.617 0.726 23.379-3.032 32.817-3.727 9.376-7.951 19.996-6.146 38.654 1.693 17.545 9.877 28.593 17.79 39.279 8.743 11.808 17.786 24.019 16.656 42.944-0.986 16.521 4.201 25.788 9.706 35.595 4.166 7.447 8.476 15.147 9.419 25.35 0.901 9.792 11.974 17.408 25.993 27.053 8.355 5.737 17.825 12.265 26.867 20.486 12.525 11.383 16.551 28.348 20.108 43.311 5.047 21.235 8.281 29.882 20.239 29.882 34.305 0 51.248 1.766 93.268 20.493 109.020 48.555 154.95 45.935 174.289 35.174 33.463-18.628 53.777-19.678 79.494-21.009 9.419-0.489 20.092-1.041 32.535-2.573 42.812-5.274 86.844-44.631 87.281-45.026 1.51-1.363 3.486-2.121 5.536-2.121h0.066c47.802 0.382 49.734-19.243 51.968-41.961 1.067-10.899 2.080-21.199 8.727-28.719 22.065-24.958 23.217-40.175 24.145-52.401 0.683-8.958 1.387-18.221 10.039-27.019 13.694-13.92 13.030-45.197-1.824-85.822-16.89-46.195-20.868-151.505-6.989-184.719 11.981-28.674 6.955-57.126-12.813-72.533-0.762-0.636-1.609-1.167-2.515-1.579-1.515 1.453-3.761 6.272-5.148 9.248-3.789 8.134-8.083 17.353-17.444 20.051-5.634 1.621-11.763 0.382-18.225-3.718-22.163-14.031-23.322-55.601-24.254-89.005-0.337-12.179-0.655-23.703-2.112-28.463-2.202-7.221-7.435-9.89-16.493-13.988-6.669-3.017-14.231-6.434-20.134-13.214-7.866-9.037-6.863-22.82-5.803-37.412 0.9-12.418 1.833-25.265-2.816-33.645-5.152-9.301-20.425-13.38-30.633-10.82-9.455 2.374-9.455 8.661-9.455 10.724 0 8.098 2.396 17.683 4.512 26.14 3.526 14.093 6.569 26.261-0.454 33.82-3.855 4.151-9.683 5.666-17.316 4.512-29.385-4.45-27.049-29.133-22.385-78.31 0.655-6.882 1.37-14.432 2.084-22.634 4.068-46.765-15.599-61.22-40.506-79.522-7.283-5.353-14.812-10.885-21.963-17.487-15.006-13.855-25.237-11.577-38.146-8.686-9.641 2.153-20.578 4.588-32.442-1.296-14.059-6.973-40.766-10.124-56.585-3.479-5.641 2.367-9.169 5.716-10.481 9.94-1.406 4.504-1.519 8.029-0.292 9.214 2.167 2.084 11.439 3.192 28.126-2.294 12.83-4.206 26.916-1.663 38.637 6.996 13.645 10.078 21.378 26.632 20.695 44.28-0.685 17.648-10.231 26.98-17.899 34.466-8.030 7.841-11.799 12.051-9.773 22.030 6.989 34.517-16.132 44.73-54.47 61.594l-0.179 0.081c-37.109 16.343-73.011 50.912-85.367 82.197-9.118 23.085-15.095 27.221-28.937 35.147-6.989 4.006-16.567 9.493-30.921 20.932-21.486 17.126-26.533 26.479-32.38 37.306-4.775 8.847-10.192 18.88-24.184 33.521-13.527 14.146-19.599 38.080-24.46 57.31-2.857 11.264-5.323 20.99-8.895 28.23-7.016 14.214-17.044 14.146-22.394 12.809-8.712-2.146-12.89-7.153-14.858-10.978-6.961-13.506 1.526-34.025 11.348-57.798 1.836-4.437 3.712-8.973 5.513-13.538 9.004-22.793 6.503-42.112 1.332-46.748-0.345-0.333-0.757-0.591-1.209-0.759-0.452-0.166-0.934-0.241-1.416-0.215z"></path>
<path fill="#407bff" d="M213.623 392.567c-2.24-0.011-4.473-0.277-6.65-0.796-8.196-1.911-14.61-7.486-18.061-15.676-6.453-15.292-2.458-37.658 10.42-58.353 10.483-16.821 28.928-32.115 45.216-45.621 11.981-9.941 23.294-19.311 26.182-25.359 2.496-5.222 3.398-11.106 4.271-16.796 1.591-10.383 3.394-22.155 16.043-27.603 8.655-3.731 19.153-2.072 28.081 4.442 4.508 3.27 8.192 7.514 10.771 12.406 2.765-5.658 5.097-13.259 4.348-22.106-0.388-4.534-1.602-9.868-2.78-15.021-2.884-12.616-5.606-24.548 2.193-30.696 5.696-4.485 12.529-5.391 19.238-2.546 12.533 5.311 23.578 24.002 25.148 42.548 2.089 24.679-19.631 79.083-79.292 93.022-53.028 12.39-58.165 44.348-56.506 62.317 1.513 16.386-3.475 32.062-12.704 39.936-4.388 3.829-10.057 5.929-15.919 5.901zM300.736 212.495c-1.641-0.013-3.266 0.308-4.772 0.945-6.15 2.65-7.253 8.109-8.817 18.327-0.956 6.244-2.039 13.316-5.299 20.141-4.034 8.45-15.223 17.732-29.387 29.476-15.578 12.915-33.231 27.55-42.654 42.69-10.533 16.922-14.365 35.968-9.551 47.407 1.941 4.634 5.171 7.509 9.562 8.538 4.628 1.086 8.449 0.275 11.674-2.477 6.244-5.327 9.668-17.263 8.518-29.702-1.628-17.587 1.553-60.134 65.897-75.172 52.489-12.265 71.68-59.074 69.886-80.248-1.289-15.232-10.398-29.324-17.762-32.444-2.543-1.078-4.546-0.818-6.694 0.872-1.687 1.996 0.777 12.796 2.106 18.603 1.269 5.559 2.581 11.305 3.036 16.673 2.123 25.106-14.46 41.748-15.166 42.438-0.9 0.887-2.061 1.476-3.317 1.685s-2.549 0.028-3.697-0.518c-1.148-0.546-2.095-1.429-2.709-2.53-0.614-1.099-0.866-2.359-0.719-3.607 0.683-5.734-2.959-12.582-9.067-17.039-3.622-2.665-7.511-4.046-11.068-4.046v-0.012z"></path>
<path fill="#407bff" d="M744.627 399.708c-1.367 0.002-2.735-0.105-4.087-0.318-19.802-3.162-17.918-28.608-16.672-45.444 0.265-3.58 0.514-6.963 0.514-9.493 0-3.247-4.245-7.987-8.352-12.574-8.316-9.295-19.712-22.027-13.306-40.256 2.528-7.179 9.668-11.469 19.595-11.721 15.674-0.382 36.755 9.218 43.535 25.538 4.348 10.46 5.933 19.735 7.33 27.91 1.436 8.41 2.675 15.674 6.601 22.106 4.386 7.198 3.369 16.439-2.784 25.399-6.78 9.873-19.614 18.852-32.373 18.852zM723.356 291.983h-0.7c-2.142 0.062-7.243 0.527-8.322 3.59-3.782 10.758 1.867 18.191 10.912 28.29 5.875 6.562 11.42 12.759 11.42 20.574 0 2.97-0.265 6.564-0.548 10.372-0.919 12.439-2.33 31.234 6.387 32.627 7.505 1.184 18.421-4.8 24.324-13.382 1.587-2.293 5.007-8.143 2.417-12.39-5.116-8.412-6.598-17.105-8.175-26.327-1.355-7.927-2.756-16.128-6.601-25.346-4.465-10.754-19.789-18.007-31.115-18.007z"></path>
<path fill="#407bff" d="M616.083 203.618c-0.346 0-0.691 0-1.041-0.023-20.19-0.81-22.441-19.881-23.795-31.247-0.444-3.72-1.165-9.94-2.394-11.148-8.491-7.008-13.463-16.891-13.63-27.098-0.145-8.965 3.386-17.285 9.679-22.824 5.047-4.431 11.853-5.937 19.695-4.366 15.919 3.192 32.89 18.412 38.724 30.624 5.952 12.46 4.798 37.991-5.66 53.524-5.557 8.227-12.998 12.559-21.579 12.559zM598.805 118.403c-2.368 0-4.271 0.631-5.719 1.911-3.633 3.196-5.668 8.159-5.579 13.61 0.109 6.794 3.396 13.198 9.257 18.038 4.902 4.045 5.769 11.305 6.682 18.993 1.634 13.714 3.358 20.217 12.098 20.569 4.638 0.191 8.514-2.156 11.881-7.153 7.763-11.546 9.135-32.566 4.783-41.673-4.465-9.34-18.249-21.559-30.059-23.921-1.099-0.235-2.219-0.36-3.343-0.375z"></path>
<path fill="#407bff" d="M399.597 62.7c-10.895 0-17.777-4.714-23.066-8.331-4.992-3.414-6.573-4.167-8.958-3.341-9.207 3.173-30.827 10.621-39.881-5.257-1.818-3.121-2.765-6.66-2.746-10.257 0.021-3.598 1.007-7.126 2.859-10.227 2.993-5.096 11.108-13.641 31.362-13.641 7.765 0 16.079-2.967 24.13-5.834 15.887-5.658 35.657-12.693 49.444 8.637 5.574 8.625 6.498 18.734 2.543 27.741-4.435 10.082-14.564 17.277-27.795 19.743-2.601 0.499-5.244 0.756-7.893 0.768zM369.212 38.614c5.824 0 10.436 3.158 14.327 5.819 5.7 3.9 11.081 7.585 21.668 5.612 9.299-1.732 15.977-6.228 18.803-12.662 2.33-5.261 1.719-11.255-1.634-16.44-8.105-12.574-17.553-9.933-34.893-3.739-9.045 3.223-18.406 6.553-28.307 6.553-10.317 0-17.886 2.787-20.774 7.646-0.768 1.28-1.173 2.739-1.173 4.225s0.405 2.945 1.173 4.225c2.78 4.867 10.528 4.798 25.131-0.233 1.822-0.649 3.742-0.989 5.679-1.005z"></path>
<path fill="#407bff" d="M279.159 161.008c-14.464 0-26.227-12.268-26.227-27.351s11.763-27.351 26.227-27.351c14.462 0 26.221 12.269 26.221 27.351s-11.763 27.351-26.221 27.351zM279.159 118.403c-7.689 0-13.943 6.843-13.943 15.254s6.255 15.254 13.943 15.254c7.686 0 13.937-6.844 13.937-15.254s-6.251-15.254-13.937-15.254z"></path>
<path fill="#407bff" d="M180.223 269.591c-1.489-0.006-2.97-0.211-4.403-0.612-5.121-1.412-8.631-5.212-9.629-10.423-2.263-11.827 8.93-30.298 17.316-36.503 5.047-3.75 8.93-3.142 11.313-1.965 9.811 4.868 10.048 19.855 5.21 32.149-4.345 11.057-11.694 17.355-19.808 17.355zM190.17 232.207c-4.508 3.802-12.369 16.183-11.993 23.364 0.081 1.53 0.388 1.606 0.955 1.762 3.549 0.986 7.377-4.224 9.446-9.466 2.749-6.989 2.531-13.041 1.592-15.661z"></path>
<path fill="#407bff" d="M121.473 420.021c-8.351 0-16.477-3.855-21.055-10.244-10.362-14.455-7.765-32.29 6.282-43.364 9.073-7.151 15.34-26.315 16.986-33.094 0.221-0.905 0.65-1.747 1.255-2.46 0.605-0.715 1.369-1.282 2.233-1.66 0.864-0.375 1.804-0.55 2.748-0.512 0.944 0.041 1.866 0.292 2.694 0.74 12.342 6.694 32.958 27.637 22.643 58.953-8.103 24.606-22.177 30.204-29.845 31.349-1.304 0.196-2.621 0.292-3.941 0.292zM133.070 344.704c-3.164 9.295-9.318 23.738-18.698 31.145-10.96 8.636-8.961 19.91-3.917 26.944 2.159 3.012 7.194 5.854 13.127 4.971 8.402-1.254 15.503-9.461 19.999-23.119 6.682-20.258-3.265-33.453-10.51-39.932v-0.009z"></path>
<path fill="#407bff" d="M820.868 659.962c-3.883 0-7.908-1.054-11.962-3.191-28.962-15.294-23.846-62.046-17.47-95.893 4.211-22.385-3.772-34.974-3.853-35.093-0.678-1.003-1.039-2.185-1.030-3.392 0.006-1.207 0.382-2.385 1.073-3.381 0.693-0.994 1.673-1.764 2.814-2.206 1.139-0.444 2.389-0.542 3.584-0.279 40.646 8.892 43.819 41.056 45.916 62.345 0.777 7.765 1.491 15.102 3.718 18.289 9.047 12.96 5.715 41.783-6.37 55.076-4.663 5.116-10.336 7.727-16.42 7.727zM803.059 532.183c1.841 7.422 2.901 17.843 0.444 30.899-8.755 46.551-4.986 74.487 11.204 83.025 5.436 2.878 9.587 2.293 13.419-1.935 8.766-9.647 10.731-32.497 5.395-40.143-4.021-5.766-4.855-14.208-5.822-23.979-1.775-18.046-3.759-38.161-24.64-47.868z"></path>
<path fill="#407bff" d="M826.633 755.42c-14.722 0-26.701-13.696-26.701-30.532 0-16.838 11.979-30.532 26.701-30.532s26.703 13.698 26.703 30.532c0 16.834-11.989 30.532-26.703 30.532zM826.633 706.451c-7.951 0-14.417 8.271-14.417 18.436s6.466 18.434 14.417 18.434c7.951 0 14.419-8.269 14.419-18.434s-6.468-18.436-14.419-18.436z"></path>
<path fill="#407bff" d="M64.424 864.969c-0.543-0.002-1.085-0.041-1.623-0.115-9.706-1.395-16.609-15.063-24.599-30.884-3.758-7.447-10.048-19.902-13.084-21.408-14.179-6.321-24.72-20.463-25.108-33.626-0.291-10.656 5.824-19.721 17.157-25.517 8.456-4.32 17.188-4.446 24.576-0.358 10.661 5.899 17.518 19.846 18.807 38.27 0.734 10.487 5.436 20.508 9.986 30.204 6.511 13.873 13.243 28.218 2.718 39.317-3.075 3.258-6.293 4.117-8.829 4.117zM30.192 762.172c-2.306 0-4.759 0.661-7.357 1.984-7.151 3.654-10.696 8.514-10.537 14.451 0.233 8.495 8.091 18.564 17.891 22.94 6.577 2.927 11.508 12.188 19.024 27.049 3.921 7.761 11.081 21.943 14.99 24.113l0.097-0.105c4.659-4.9 1.165-13.071-4.892-25.997-4.783-10.189-10.199-21.734-11.088-34.441-0.986-14.071-5.684-24.747-12.568-28.555-1.694-0.949-3.61-1.446-5.56-1.44z"></path>
<path fill="#407bff" d="M485.781 693.342c4.909 24.049-10.765 49.357-33.451 58.878-31.755 14.234-71.588-2.519-81.182-35.874-2.21-7.614-2.675-15.595-1.165-23.010 0.164-0.796 0.602-1.51 1.235-2.025 0.636-0.516 1.431-0.804 2.255-0.813s1.623 0.26 2.27 0.762c0.646 0.503 1.099 1.207 1.282 1.999 5.203 24.467 25.858 42.769 50.515 42.517 24.486-0.188 44.559-18.244 49.835-42.436 0.879-4.467 7.533-4.431 8.39 0l0.015 0.002z"></path>
<path fill="#fff" opacity="0.5" d="M210.96 730.146c22.134-4.171 35.687-30.155 30.271-58.037-5.419-27.883-27.753-47.106-49.887-42.938-22.135 4.171-35.687 30.155-30.27 58.037s27.752 47.106 49.886 42.938z"></path>
<path fill="#fff" opacity="0.5" d="M212.167 601.568c22.88 7.010 45.868-66.769 86.412-83.465s67.273-69.218 79.708-103.191c12.435-33.971 63.475-56.154 52.693-79.904-10.782-23.748-57.476-4.64-84.988 31.531s-15.238 73.909-56.738 89.877c-41.502 15.97-124.446 130.635-77.088 145.152z"></path>
<path fill="#407bff" opacity="0.2" d="M752.143 783.524c-15.684 15.311 5.195 31.153-31.836 71.411-15.426 16.751 11.383 66.906-62.897 66.317 0 0-43.142 37.404-86.287 42.517-43.147 5.116-61.116-1.705-102.455 20.41-41.342 22.112-133.022-15.294-170.78-31.462-37.756-16.166-52.113-17.858-84.463-17.858-32.349 0-19.769-47.616-43.146-68.021-23.376-20.403-50.336-28.896-52.138-47.595s-19.77-27.209-17.968-56.124c1.802-28.915-28.765-37.402-32.349-73.118s16.163-42.498 8.972-62.906c-7.19-20.41-8.972-37.402 1.805-57.807 1.286-2.479 2.775-4.851 4.453-7.091 0.454 11.569 1.107 23.14 5.125 30.313 4.15 7.418 9.648 14.261 12.187 22.298 6.519 20.644-8.060 41.634-10.188 63.083-3.952 39.68 33.284 70.383 58.746 102.135 22.658 28.254 38.906 63.006 70.906 81.502 35.61 20.591 81.796 15.292 120.791 1.274 38.995-14.020 74.603-35.938 114.336-48.004 45.971-14.016 95.283-14.244 143.516-11.851 34.737 1.724 74.404 3.057 98.564-20.593 13.903-13.602 19.462-32.86 23.268-51.437 7.298-35.659 10.037-72.077 8.154-108.405 4.211 7.853 8.418 15.71 12.621 23.573 2.366 20.55 6.146 39.477 11.076 52.422 14.867 39.108 15.652 69.709-0.015 85.018z"></path>
<path fill="#407bff" d="M542.133 531.836c26.257-2.633 50.505 25.673 54.155 63.223 3.648 37.553-14.684 70.133-40.939 72.772-26.253 2.637-50.502-25.675-54.153-63.226s14.679-70.127 40.937-72.77z"></path>
<path fill="#fff" d="M543.981 547.569c8.367 3.441 11.97 16.222 8.049 28.546-3.923 12.326-13.888 19.533-22.255 16.092-8.367-3.439-11.97-16.222-8.049-28.546 3.921-12.326 13.888-19.533 22.255-16.092z"></path>
<path fill="#8baeff" d="M572.139 628.299c3.959 2.891 4.442 9.939 1.075 15.74s-9.318 8.175-13.267 5.289c-3.947-2.886-4.442-9.941-1.075-15.742 3.366-5.798 9.308-8.169 13.267-5.286z"></path>
<path fill="#407bff" d="M316.96 531.836c-26.257-2.633-50.505 25.673-54.153 63.223-3.65 37.553 14.679 70.133 40.937 72.772 26.257 2.637 50.502-25.675 54.153-63.226s-14.675-70.127-40.937-72.77z"></path>
<path fill="#fff" d="M315.119 547.569c-8.367 3.441-11.97 16.222-8.049 28.546 3.921 12.326 13.888 19.533 22.255 16.092 8.367-3.439 11.97-16.222 8.047-28.546-3.921-12.326-13.886-19.533-22.253-16.092z"></path>
<path fill="#8baeff" d="M286.957 628.299c-3.959 2.891-4.442 9.939-1.075 15.74s9.318 8.175 13.265 5.289c3.949-2.886 4.442-9.941 1.077-15.742-3.366-5.798-9.308-8.169-13.267-5.286z"></path>
</svg>
