<svg width="768" height="800" viewBox="0 0 768 800" fill="none" xmlns="http://www.w3.org/2000/svg">
<g clip-path="url(#clip0_3782_550)">
<rect width="768" height="800" fill="white"/>
<g clip-path="url(#clip1_3782_550)">
<path fill-rule="evenodd" clip-rule="evenodd" d="M-400 336L-319.917 345.667C-239.833 355.333 -79.6667 374.667 80.5 442.333C240.667 510 400.833 626 561 684C721.167 742 881.333 742 1041.5 751.667C1201.67 761.333 1361.83 780.667 1441.92 790.333L1522 800V800H1441.92C1361.83 800 1201.67 800 1041.5 800C881.333 800 721.167 800 561 800C400.833 800 240.667 800 80.5 800C-79.6667 800 -239.833 800 -319.917 800H-400V336Z" fill="#9EBBFF"/>
<path opacity="0.8" fill-rule="evenodd" clip-rule="evenodd" d="M1907 34H1842.92C1778.83 34 1650.67 34 1522.5 74.7407C1394.33 113.63 1266.17 193.259 1138 193.259C1009.83 193.259 881.667 113.63 753.5 180.296C625.333 246.963 497.167 459.926 369 567.333C240.833 674.741 112.667 674.741 -15.5 646.963C-143.667 621.037 -271.833 567.333 -335.917 541.407L-400 513.63V834H-335.917C-271.833 834 -143.667 834 -15.5 834C112.667 834 240.833 834 369 834C497.167 834 625.333 834 753.5 834C881.667 834 1009.83 834 1138 834C1266.17 834 1394.33 834 1522.5 834C1650.67 834 1778.83 834 1842.92 834H1907V34Z" fill="#ECF2FF"/>
<g clip-path="url(#clip2_3782_550)">
<path d="M9.95387 571.149C9.72667 573.908 8.68642 576.538 6.96465 578.706C5.24287 580.874 2.91689 582.483 0.280743 583.33C-2.35541 584.176 -5.18336 584.222 -7.84554 583.461C-10.5077 582.701 -12.8846 581.168 -14.6758 579.057C-16.4669 576.946 -17.5918 574.351 -17.9082 571.6C-18.2247 568.85 -17.7185 566.067 -16.4537 563.604C-15.1889 561.142 -13.2222 559.109 -10.8023 557.764C-8.38242 556.419 -5.618 555.821 -2.8585 556.047C0.842219 556.353 4.2701 558.115 6.67233 560.947C9.07457 563.779 10.2548 567.448 9.95387 571.149Z" fill="#C6D7FF"/>
<path d="M13.9703 261.739C13.8243 263.512 13.1556 265.203 12.0487 266.597C10.9418 267.991 9.44657 269.025 7.75191 269.569C6.05724 270.113 4.23927 270.143 2.52786 269.654C0.816458 269.165 -0.711557 268.179 -1.86299 266.822C-3.01442 265.465 -3.73756 263.797 -3.94101 262.029C-4.14445 260.261 -3.81905 258.472 -3.00595 256.889C-2.19285 255.305 -0.928554 253.999 0.627089 253.134C2.18273 252.269 3.95986 251.885 5.73382 252.03C8.11285 252.227 10.3165 253.36 11.8608 255.18C13.4051 257.001 14.1638 259.359 13.9703 261.739Z" fill="#ECF2FF"/>
<path opacity="0.7" d="M29.1573 415.87H27.9139C25.9303 415.734 23.9933 415.206 22.2149 414.317C20.4365 413.427 18.8519 412.194 17.5526 410.689C16.2746 409.189 15.3073 407.451 14.707 405.574C14.1067 403.697 13.8853 401.72 14.0557 399.756C14.2972 396.854 15.3783 394.084 17.1672 391.786C18.9561 389.488 21.3753 387.76 24.1296 386.814C26.8838 385.867 29.854 385.744 32.6774 386.457C35.5008 387.171 38.0554 388.692 40.0293 390.833C42.0032 392.975 43.311 395.645 43.7931 398.517C44.2752 401.389 43.9106 404.34 42.744 407.009C41.5774 409.678 39.6592 411.949 37.2235 413.545C34.7878 415.142 31.94 415.995 29.0278 416L29.1573 415.87ZM29.1573 387.788C26.2113 387.802 23.3583 388.821 21.0691 390.676C18.7799 392.53 17.1914 395.11 16.5656 397.989C15.9398 400.868 16.3141 403.875 17.6269 406.513C18.9396 409.15 21.1123 411.262 23.7863 412.498C26.4604 413.735 29.4761 414.023 32.3357 413.314C35.1953 412.606 37.728 410.943 39.5158 408.601C41.3036 406.259 42.2396 403.378 42.1695 400.432C42.0994 397.487 41.0272 394.653 39.13 392.399C38.0244 391.089 36.6698 390.011 35.1447 389.228C33.6195 388.446 31.9542 387.973 30.2452 387.839L29.1573 387.788Z" fill="#9EBBFF"/>
<path d="M379.954 248.149C379.727 250.908 378.686 253.538 376.965 255.706C375.243 257.874 372.917 259.483 370.281 260.33C367.645 261.176 364.817 261.222 362.154 260.461C359.492 259.701 357.115 258.168 355.324 256.057C353.533 253.946 352.408 251.351 352.092 248.6C351.775 245.85 352.281 243.067 353.546 240.604C354.811 238.142 356.778 236.109 359.198 234.764C361.618 233.419 364.382 232.821 367.141 233.047C370.842 233.353 374.27 235.115 376.672 237.947C379.075 240.779 380.255 244.448 379.954 248.149Z" fill="#ECF2FF"/>
<path opacity="0.7" d="M590.262 156.784H588.19C584.884 156.557 581.655 155.677 578.691 154.195C575.727 152.712 573.086 150.657 570.921 148.148C568.791 145.649 567.179 142.751 566.178 139.623C565.178 136.495 564.809 133.199 565.093 129.927C565.495 125.09 567.297 120.474 570.279 116.643C573.26 112.813 577.292 109.933 581.883 108.356C586.473 106.779 591.423 106.573 596.129 107.762C600.835 108.952 605.092 111.486 608.382 115.055C611.672 118.624 613.852 123.074 614.655 127.862C615.459 132.649 614.851 137.567 612.907 142.015C610.962 146.463 607.765 150.248 603.706 152.909C599.646 155.57 594.9 156.992 590.046 157L590.262 156.784ZM590.262 109.979C585.352 110.004 580.597 111.701 576.782 114.793C572.967 117.884 570.319 122.183 569.276 126.982C568.233 131.781 568.857 136.792 571.045 141.188C573.233 145.584 576.854 149.103 581.311 151.164C585.767 153.225 590.793 153.704 595.56 152.523C600.326 151.343 604.547 148.572 607.526 144.669C610.506 140.766 612.066 135.963 611.949 131.054C611.832 126.145 610.045 121.422 606.883 117.665C605.041 115.481 602.783 113.685 600.241 112.38C597.699 111.076 594.924 110.289 592.075 110.065L590.262 109.979Z" fill="#C6D7FF"/>
<path d="M614.954 367.149C614.727 369.908 613.686 372.538 611.965 374.706C610.243 376.874 607.917 378.483 605.281 379.33C602.645 380.176 599.817 380.222 597.154 379.461C594.492 378.701 592.115 377.168 590.324 375.057C588.533 372.946 587.408 370.351 587.092 367.6C586.775 364.85 587.281 362.067 588.546 359.604C589.811 357.142 591.778 355.109 594.198 353.764C596.618 352.419 599.382 351.821 602.141 352.047C605.842 352.353 609.27 354.115 611.672 356.947C614.075 359.779 615.255 363.448 614.954 367.149Z" fill="#C6D7FF"/>
<path opacity="0.7" d="M764.231 291.81H762.407C759.498 291.61 756.657 290.836 754.048 289.531C751.44 288.227 749.116 286.419 747.211 284.211C745.336 282.011 743.917 279.461 743.037 276.708C742.156 273.956 741.832 271.055 742.082 268.176C742.436 263.919 744.022 259.857 746.645 256.486C749.269 253.115 752.817 250.581 756.857 249.193C760.896 247.806 765.252 247.624 769.394 248.671C773.535 249.718 777.281 251.948 780.176 255.089C783.071 258.229 784.989 262.145 785.697 266.358C786.404 270.571 785.869 274.899 784.158 278.813C782.447 282.727 779.633 286.058 776.061 288.4C772.489 290.742 768.312 291.993 764.041 292L764.231 291.81ZM764.231 250.622C759.91 250.643 755.725 252.137 752.368 254.857C749.011 257.578 746.681 261.361 745.763 265.584C744.845 269.807 745.394 274.217 747.319 278.085C749.245 281.954 752.431 285.051 756.353 286.864C760.275 288.678 764.698 289.1 768.892 288.061C773.086 287.022 776.801 284.583 779.423 281.149C782.045 277.714 783.418 273.488 783.315 269.168C783.212 264.847 781.64 260.691 778.857 257.385C777.236 255.463 775.249 253.883 773.012 252.735C770.775 251.587 768.333 250.894 765.826 250.698L764.231 250.622Z" fill="#9EBBFF"/>
</g>
<g clip-path="url(#clip3_3782_550)">
<path d="M648 784C758.937 784 848.87 778.75 848.87 772.273C848.87 765.797 758.937 760.546 648 760.546C537.062 760.546 447.13 765.797 447.13 772.273C447.13 778.75 537.062 784 648 784Z" fill="#F5F5F5"/>
<path opacity="0.1" d="M531.243 690.403C531.367 689.47 531.845 688.62 532.577 688.028C533.31 687.437 534.241 687.148 535.18 687.223C544.048 687.088 552.346 693.356 560.044 700.079C561.753 701.56 563.607 703.093 565.524 701.539C566.117 701.049 566.55 700.392 566.767 699.654C567.099 698.447 567.099 697.173 566.767 695.966C566.482 694.97 566.007 694.037 565.369 693.221C562.022 688.818 557.951 686.705 554.646 682.157C552.795 679.552 551.261 676.735 550.077 673.766C549.041 671.155 546.969 666.939 547.798 663.407C548.72 659.18 551.88 659.543 553.797 660.123C559.857 661.936 565.514 666.255 570.652 671.632C576.133 677.35 581.095 684.239 586.037 691.087C587.902 693.687 589.87 696.36 592.253 697.302C594.636 698.245 597.65 696.722 598.655 692.972C599.66 689.222 598.479 684.913 598.231 681.183C597.898 676.733 598.114 672.259 598.873 667.861C599.21 665.536 599.994 663.299 601.183 661.273C603.856 657.357 607.814 658.735 610.404 661.697C612.38 664.176 613.909 666.98 614.921 669.985C617.827 678.286 619.57 686.949 620.101 695.728C620.494 701.167 621.323 706.833 623.561 711.049C627.176 717.866 633.921 717.327 639.153 713.753C648.259 707.538 655.283 693.49 657.158 677.785C657.769 672.668 657.925 667.136 659.79 662.847C661.416 659.139 665.591 656.632 667.632 660.63C668.454 662.63 668.684 664.823 668.295 666.95C667.93 669.056 667.414 671.133 666.752 673.165C665.716 676.687 664.68 683.286 667.477 685.348C667.894 685.601 668.361 685.76 668.846 685.814C669.331 685.868 669.822 685.815 670.284 685.659C679.443 683.752 687.959 675.133 693.553 663.106C695.58 658.58 697.128 653.855 698.173 649.007C698.847 646.044 699.127 642.864 699.873 639.922C700.351 637.607 701.318 635.42 702.711 633.51C706.275 629.241 714.501 631.251 714.967 640.399C715.247 645.692 713.838 650.872 713.32 656.052C712.999 659.284 714.998 659.263 716.49 659.159C723.638 658.434 729.958 651.224 735.563 643.724C742.224 634.804 749.601 623.223 758.697 622.881C760.769 622.808 764.218 623.078 765.462 626.279C766.038 628.24 766.038 630.326 765.462 632.287C763.618 639.932 758.21 643.879 754.066 647.66C742.382 658.618 732.106 670.985 723.473 684.478C722.157 686.549 720.8 689.968 722.053 691.998C722.293 692.385 722.644 692.69 723.059 692.875C723.475 693.06 723.937 693.115 724.384 693.034C728.663 692.703 732.672 689.305 736.578 686.487C740.484 683.67 744.918 681.204 749.01 683.328C750.272 684.085 751.371 685.084 752.244 686.268C753.117 687.453 753.747 688.798 754.097 690.227C754.828 692.731 754.945 695.375 754.439 697.934C752.936 704.968 746.441 708.128 742.867 711.598C737.945 716.346 733.439 721.507 729.399 727.023C725.669 732.131 722.147 737.725 718.417 742.739C704.949 760.691 686.301 763.354 669.725 765.436C651.688 767.694 633.61 766.472 615.677 764.1C602.634 762.359 589.777 758.651 577.044 754.248C572.672 752.663 568.332 750.933 564.043 748.882C559.432 746.686 552.647 745.328 550.875 736.678C550.502 734.814 550.937 733.301 552.17 732.607C555.993 730.432 561.442 733.343 565.037 735.259C570 737.911 574.703 741.692 579.8 743.733C580.619 744.136 581.512 744.368 582.424 744.416C583.335 744.464 584.247 744.327 585.104 744.013C585.945 743.66 586.637 743.027 587.062 742.221C587.604 741.17 587.737 739.955 587.435 738.812C587.225 738.195 586.87 737.637 586.399 737.186C577.225 727.784 566.263 720.31 554.159 715.203C550.274 713.536 546.306 712.168 542.566 709.806C539.543 707.937 536.934 705.469 534.9 702.555C533.159 699.768 530.362 694.847 531.243 690.403Z" fill="#407BFF"/>
<path opacity="0.1" d="M729.399 614.251C728.706 614.969 727.799 615.441 726.815 615.597C725.83 615.753 724.821 615.584 723.941 615.116C723.061 614.648 722.357 613.906 721.936 613.002C721.515 612.099 721.4 611.083 721.608 610.108C725.182 592.756 732.952 580.138 742.193 586.685C749.093 591.564 738.277 605.021 729.399 614.251Z" fill="#407BFF"/>
<path opacity="0.3" d="M704.327 622.353C707.154 620.793 709.55 618.557 711.301 615.846C713.053 613.134 714.106 610.031 714.366 606.814L721.369 521.504C721.733 517.119 721.175 512.706 719.731 508.549C718.288 504.393 715.991 500.584 712.988 497.367L691.408 474.255C690.221 472.977 689.312 471.466 688.74 469.819C688.167 468.171 687.943 466.422 688.083 464.683L689.119 452.19L633.268 447.601L632.232 460.094C632.089 461.832 631.585 463.521 630.752 465.054C629.919 466.586 628.775 467.928 627.394 468.993L602.323 488.292C598.837 490.978 595.952 494.362 593.85 498.228C591.748 502.094 590.478 506.356 590.119 510.741L583.105 596.05C582.84 599.263 583.373 602.492 584.659 605.449C585.944 608.406 587.941 611 590.471 612.998C587.645 614.557 585.249 616.793 583.499 619.504C581.749 622.216 580.699 625.32 580.442 628.537L571.502 737.31C571.08 742.482 572.729 747.609 576.086 751.565C579.443 755.522 584.233 757.985 589.404 758.412L681.608 765.985C684.168 766.196 686.745 765.901 689.192 765.117C691.638 764.332 693.906 763.073 695.866 761.411C697.826 759.75 699.439 757.719 700.613 755.434C701.788 753.149 702.501 750.655 702.711 748.094L711.652 639.321C711.925 636.108 711.4 632.877 710.122 629.917C708.844 626.956 706.853 624.357 704.327 622.353Z" fill="#407BFF"/>
<path opacity="0.3" d="M633.284 447.62L632.492 457.252L688.33 461.843L689.122 452.21L633.284 447.62Z" fill="#407BFF"/>
<path opacity="0.3" d="M712.47 499.594L690.89 476.462C690.89 476.462 676.977 477.063 687.782 494.124C696.992 508.555 713.04 506.307 712.47 499.594Z" fill="white"/>
<path opacity="0.2" d="M571.512 737.269C571.091 742.44 572.74 747.567 576.096 751.524C579.453 755.481 584.243 757.943 589.414 758.371L681.618 765.943C684.179 766.155 686.756 765.86 689.202 765.075C691.649 764.29 693.917 763.031 695.876 761.37C697.836 759.708 699.449 757.677 700.624 755.392C701.798 753.107 702.511 750.613 702.722 748.053L571.512 737.269Z" fill="#407BFF"/>
<path opacity="0.3" d="M708.44 501.594C710.85 504.178 712.694 507.236 713.853 510.574C715.013 513.911 715.463 517.454 715.174 520.976L708.171 606.296C707.989 608.489 707.267 610.603 706.071 612.45C704.874 614.297 703.24 615.82 701.313 616.883L693.159 621.399L700.463 627.19C702.191 628.552 703.555 630.321 704.434 632.338C705.312 634.355 705.678 636.559 705.498 638.751L696.557 747.525C696.269 751.05 694.595 754.316 691.901 756.608C689.207 758.9 685.714 760.029 682.188 759.749L589.984 752.176C588.233 752.037 586.527 751.555 584.962 750.757C583.397 749.959 582.005 748.86 580.865 747.524C579.725 746.188 578.86 744.64 578.318 742.969C577.776 741.299 577.569 739.538 577.707 737.787L586.648 629.014C586.827 626.819 587.545 624.703 588.74 622.854C589.935 621.005 591.569 619.48 593.496 618.416L601.649 613.899L594.397 608.108C592.669 606.746 591.305 604.978 590.427 602.961C589.548 600.944 589.182 598.74 589.362 596.547L596.376 511.238C596.667 507.716 597.69 504.294 599.379 501.19C601.069 498.086 603.387 495.369 606.187 493.213C614.475 487.857 636.231 501.19 661.706 503.282C687.181 505.375 703.115 498.91 708.44 501.594Z" fill="#407BFF"/>
<path opacity="0.2" d="M661.655 503.292C636.19 501.221 614.413 487.857 606.125 493.213C620.629 501.19 637.205 506.131 661.251 508.11C685.296 510.088 708.44 501.594 708.44 501.594C703.115 498.91 687.119 505.395 661.655 503.292Z" fill="#407BFF"/>
<path opacity="0.2" d="M583.115 596.05C582.85 599.263 583.384 602.492 584.669 605.449C585.954 608.406 587.951 611 590.481 612.998L704.327 622.321C707.154 620.761 709.55 618.526 711.301 615.814C713.053 613.103 714.106 610 714.366 606.782L583.115 596.05Z" fill="#407BFF"/>
<path d="M690.29 436.932L634.607 432.34C632.275 432.148 630.23 433.882 630.038 436.215L628.928 449.761C628.737 452.093 630.473 454.139 632.805 454.332L688.487 458.923C690.82 459.116 692.865 457.381 693.056 455.049L694.167 441.503C694.358 439.171 692.622 437.124 690.29 436.932Z" fill="#407BFF"/>
<path opacity="0.2" d="M635.63 452.242C635.562 452.236 635.496 452.218 635.435 452.187C635.374 452.156 635.32 452.113 635.276 452.061C635.231 452.009 635.198 451.949 635.177 451.884C635.156 451.819 635.148 451.75 635.154 451.682L636.459 435.294C636.47 435.156 636.535 435.029 636.64 434.939C636.745 434.85 636.881 434.806 637.018 434.817C637.156 434.828 637.283 434.893 637.373 434.998C637.462 435.103 637.506 435.239 637.495 435.376L636.148 451.755C636.14 451.887 636.082 452.01 635.986 452.101C635.89 452.191 635.762 452.242 635.63 452.242Z" fill="white"/>
<path opacity="0.2" d="M645.731 453.07C645.663 453.065 645.597 453.046 645.536 453.015C645.475 452.984 645.421 452.942 645.377 452.89C645.332 452.838 645.299 452.777 645.278 452.712C645.257 452.647 645.249 452.579 645.255 452.511L646.602 436.133C646.615 435.996 646.68 435.87 646.785 435.781C646.889 435.692 647.024 435.647 647.161 435.656C647.229 435.661 647.295 435.68 647.355 435.711C647.415 435.742 647.469 435.785 647.512 435.837C647.556 435.889 647.588 435.95 647.608 436.015C647.628 436.08 647.634 436.148 647.627 436.216L646.249 452.594C646.237 452.723 646.177 452.843 646.081 452.931C645.986 453.019 645.861 453.068 645.731 453.07Z" fill="white"/>
<path opacity="0.2" d="M655.822 453.941C655.754 453.935 655.687 453.917 655.626 453.886C655.566 453.855 655.511 453.812 655.467 453.76C655.423 453.708 655.389 453.648 655.368 453.583C655.347 453.518 655.34 453.449 655.345 453.381L656.692 437.003C656.708 436.867 656.774 436.743 656.878 436.654C656.982 436.566 657.115 436.52 657.252 436.526C657.32 436.532 657.386 436.55 657.447 436.581C657.508 436.612 657.562 436.655 657.606 436.707C657.65 436.759 657.684 436.819 657.705 436.884C657.726 436.949 657.734 437.018 657.728 437.086L656.381 453.464C656.376 453.532 656.357 453.598 656.326 453.659C656.295 453.72 656.253 453.774 656.201 453.819C656.149 453.863 656.088 453.896 656.023 453.917C655.958 453.938 655.89 453.946 655.822 453.941Z" fill="white"/>
<path opacity="0.2" d="M665.923 454.728C665.855 454.722 665.788 454.704 665.728 454.673C665.667 454.642 665.613 454.599 665.568 454.547C665.524 454.495 665.49 454.435 665.469 454.37C665.449 454.305 665.441 454.236 665.446 454.168L666.793 437.79C666.806 437.654 666.872 437.528 666.976 437.439C667.081 437.35 667.216 437.305 667.353 437.314C667.42 437.319 667.486 437.337 667.547 437.369C667.607 437.4 667.66 437.443 667.704 437.495C667.747 437.547 667.78 437.607 667.8 437.672C667.819 437.737 667.826 437.805 667.819 437.873L666.472 454.251C666.468 454.319 666.451 454.385 666.421 454.446C666.391 454.507 666.349 454.561 666.298 454.605C666.247 454.65 666.187 454.683 666.123 454.704C666.058 454.725 665.99 454.733 665.923 454.728Z" fill="white"/>
<path opacity="0.2" d="M675.972 455.556C675.904 455.551 675.837 455.533 675.777 455.502C675.716 455.471 675.662 455.428 675.617 455.376C675.573 455.324 675.539 455.264 675.519 455.199C675.498 455.134 675.49 455.065 675.495 454.997L676.842 438.619C676.86 438.484 676.927 438.361 677.03 438.273C677.134 438.185 677.266 438.139 677.402 438.142C677.47 438.148 677.536 438.166 677.597 438.197C677.658 438.228 677.712 438.271 677.756 438.323C677.801 438.375 677.834 438.435 677.855 438.5C677.876 438.565 677.884 438.634 677.878 438.702L676.531 455.08C676.528 455.148 676.51 455.216 676.479 455.277C676.449 455.339 676.406 455.393 676.354 455.438C676.301 455.482 676.241 455.516 676.175 455.536C676.109 455.557 676.04 455.564 675.972 455.556Z" fill="white"/>
<path opacity="0.2" d="M686.115 456.385C686.046 456.38 685.98 456.361 685.919 456.33C685.858 456.299 685.804 456.257 685.76 456.205C685.716 456.153 685.682 456.092 685.661 456.027C685.64 455.962 685.632 455.894 685.638 455.826L686.943 439.437C686.957 439.301 687.022 439.175 687.127 439.086C687.231 438.997 687.366 438.952 687.503 438.961C687.639 438.974 687.764 439.04 687.851 439.145C687.938 439.249 687.981 439.384 687.969 439.52L686.633 455.909C686.62 456.038 686.56 456.158 686.464 456.246C686.369 456.334 686.244 456.383 686.115 456.385Z" fill="white"/>
<path opacity="0.2" d="M600.344 567.551C598.769 558.839 586.078 559.461 585.353 568.277L583.074 596.05C582.809 599.263 583.342 602.492 584.628 605.449C585.913 608.406 587.91 610.999 590.44 612.998C587.614 614.557 585.218 616.792 583.468 619.504C581.718 622.216 580.668 625.32 580.411 628.537L571.471 737.31C571.049 742.482 572.698 747.609 576.055 751.565C579.412 755.522 584.202 757.985 589.373 758.412L613.201 760.37C615.826 760.585 618.465 760.194 620.915 759.226C623.365 758.259 625.56 756.742 627.33 754.792C629.1 752.841 630.398 750.51 631.124 747.979C631.85 745.447 631.985 742.782 631.517 740.19L600.344 567.551Z" fill="#407BFF"/>
<path opacity="0.3" d="M692.03 709.982C691.866 711.979 691.113 713.882 689.867 715.451C688.621 717.02 686.937 718.185 685.03 718.797C683.122 719.41 681.075 719.443 679.149 718.893C677.222 718.342 675.502 717.233 674.206 715.705C672.91 714.177 672.095 712.299 671.866 710.309C671.637 708.319 672.004 706.305 672.919 704.523C673.834 702.74 675.258 701.269 677.009 700.296C678.76 699.322 680.761 698.89 682.758 699.053C685.436 699.275 687.917 700.55 689.655 702.6C691.394 704.649 692.248 707.304 692.03 709.982Z" fill="#407BFF"/>
<path opacity="0.3" d="M659.821 670.751C659.705 672.165 659.173 673.512 658.292 674.623C657.411 675.734 656.22 676.559 654.87 676.993C653.52 677.427 652.071 677.45 650.708 677.061C649.344 676.672 648.127 675.887 647.209 674.806C646.292 673.725 645.715 672.396 645.553 670.987C645.391 669.578 645.651 668.153 646.299 666.892C646.947 665.631 647.954 664.59 649.194 663.901C650.434 663.213 651.85 662.907 653.263 663.023C655.156 663.182 656.909 664.084 658.139 665.533C659.368 666.981 659.973 668.858 659.821 670.751Z" fill="#407BFF"/>
<path opacity="0.3" d="M629.849 583.432C628.434 583.498 627.03 583.143 625.816 582.412C624.602 581.68 623.632 580.606 623.029 579.323C622.426 578.041 622.216 576.609 622.426 575.207C622.637 573.806 623.258 572.498 624.211 571.45C625.164 570.401 626.407 569.658 627.782 569.316C629.157 568.973 630.603 569.045 631.937 569.524C633.271 570.003 634.433 570.866 635.277 572.004C636.12 573.143 636.608 574.506 636.677 575.922C636.723 576.864 636.582 577.805 636.264 578.692C635.946 579.58 635.455 580.396 634.821 581.093C634.187 581.791 633.421 582.357 632.568 582.758C631.715 583.159 630.791 583.389 629.849 583.432Z" fill="#407BFF"/>
<path opacity="0.3" d="M649.399 540.576C648.395 540.626 647.399 540.377 646.537 539.861C645.675 539.345 644.985 538.584 644.556 537.676C644.126 536.768 643.976 535.752 644.124 534.758C644.272 533.765 644.712 532.837 645.387 532.093C646.063 531.349 646.944 530.823 647.919 530.58C648.894 530.338 649.919 530.39 650.865 530.73C651.81 531.07 652.633 531.684 653.23 532.492C653.826 533.301 654.17 534.268 654.216 535.272C654.278 536.613 653.806 537.925 652.903 538.919C652 539.913 650.74 540.509 649.399 540.576Z" fill="#407BFF"/>
<path opacity="0.3" d="M680.852 639.766C680.803 640.35 680.582 640.906 680.217 641.364C679.852 641.822 679.36 642.161 678.802 642.34C678.244 642.518 677.646 642.528 677.083 642.366C676.52 642.205 676.018 641.881 675.639 641.434C675.26 640.988 675.022 640.439 674.955 639.857C674.889 639.276 674.995 638.687 675.263 638.166C675.53 637.645 675.946 637.215 676.457 636.93C676.969 636.645 677.554 636.518 678.137 636.566C678.921 636.631 679.647 637.005 680.156 637.605C680.664 638.205 680.915 638.982 680.852 639.766Z" fill="#407BFF"/>
<path opacity="0.7" d="M627.187 720.818H626.689C625.896 720.764 625.121 720.552 624.41 720.197C623.699 719.841 623.065 719.348 622.545 718.746C622.034 718.147 621.647 717.451 621.407 716.701C621.167 715.95 621.079 715.16 621.147 714.375C621.243 713.214 621.676 712.106 622.391 711.187C623.107 710.268 624.074 709.578 625.176 709.199C626.277 708.821 627.465 708.771 628.595 709.057C629.724 709.342 630.746 709.95 631.535 710.806C632.324 711.663 632.847 712.73 633.04 713.879C633.233 715.028 633.087 716.207 632.621 717.275C632.154 718.342 631.387 719.25 630.413 719.888C629.439 720.527 628.3 720.868 627.135 720.87L627.187 720.818ZM627.187 709.589C626.008 709.594 624.867 710.002 623.952 710.743C623.036 711.485 622.401 712.517 622.151 713.668C621.9 714.819 622.05 716.021 622.575 717.076C623.1 718.131 623.969 718.975 625.039 719.47C626.108 719.964 627.314 720.079 628.458 719.796C629.602 719.513 630.615 718.848 631.33 717.911C632.045 716.975 632.419 715.823 632.391 714.645C632.363 713.467 631.934 712.334 631.175 711.433C630.733 710.909 630.191 710.478 629.581 710.165C628.971 709.852 628.305 709.663 627.622 709.609L627.187 709.589Z" fill="white"/>
<path opacity="0.7" d="M691.263 599.593H690.901C689.75 599.498 688.684 598.951 687.937 598.071C687.189 597.191 686.821 596.051 686.912 594.9C687.007 593.748 687.556 592.68 688.438 591.932C689.32 591.184 690.463 590.817 691.616 590.912C692.766 591.007 693.832 591.554 694.58 592.434C695.328 593.314 695.696 594.454 695.604 595.605C695.506 596.757 694.959 597.825 694.081 598.578C693.292 599.24 692.293 599.6 691.263 599.593ZM687.689 594.942C687.638 595.646 687.796 596.35 688.143 596.965C688.49 597.58 689.011 598.079 689.641 598.399C690.271 598.719 690.981 598.845 691.683 598.763C692.384 598.68 693.046 598.393 693.584 597.935C693.943 597.631 694.239 597.259 694.455 596.84C694.67 596.421 694.801 595.963 694.839 595.494C694.878 595.024 694.823 594.552 694.679 594.103C694.535 593.655 694.303 593.239 693.998 592.88C693.682 592.531 693.299 592.249 692.872 592.05C692.445 591.85 691.983 591.738 691.512 591.72C691.043 591.68 690.571 591.733 690.123 591.877C689.675 592.02 689.259 592.25 688.9 592.554C688.541 592.858 688.246 593.23 688.031 593.649C687.816 594.068 687.686 594.524 687.648 594.993L687.689 594.942Z" fill="white"/>
<path opacity="0.7" d="M624.327 507.747H624.172C623.637 507.694 623.143 507.435 622.795 507.026C622.447 506.616 622.272 506.087 622.307 505.551C622.333 505.148 622.477 504.761 622.72 504.439C622.963 504.116 623.295 503.872 623.675 503.735C624.055 503.599 624.467 503.577 624.86 503.671C625.252 503.766 625.609 503.973 625.885 504.267C626.162 504.562 626.346 504.93 626.416 505.328C626.485 505.726 626.437 506.135 626.277 506.506C626.117 506.877 625.852 507.193 625.515 507.415C625.178 507.637 624.783 507.756 624.379 507.757L624.327 507.747ZM623.074 505.613C623.054 505.859 623.108 506.106 623.229 506.323C623.35 506.539 623.531 506.714 623.752 506.827C623.972 506.94 624.221 506.985 624.467 506.957C624.713 506.928 624.945 506.828 625.134 506.668C625.323 506.508 625.46 506.296 625.528 506.058C625.597 505.82 625.593 505.567 625.518 505.331C625.443 505.095 625.299 504.887 625.106 504.732C624.912 504.578 624.678 504.484 624.431 504.463C624.266 504.447 624.099 504.465 623.941 504.515C623.783 504.564 623.637 504.645 623.51 504.752C623.384 504.859 623.28 504.991 623.205 505.138C623.13 505.286 623.085 505.447 623.074 505.613Z" fill="white"/>
<path opacity="0.7" d="M670.139 561.398H669.704C669.022 561.345 668.357 561.157 667.748 560.845C667.14 560.533 666.598 560.104 666.156 559.582C665.714 559.06 665.38 558.455 665.173 557.803C664.965 557.151 664.889 556.465 664.949 555.783C665.037 554.783 665.415 553.83 666.035 553.04C666.655 552.251 667.491 551.658 668.442 551.335C669.393 551.012 670.417 550.972 671.39 551.221C672.363 551.469 673.243 551.995 673.923 552.734C674.602 553.473 675.052 554.394 675.218 555.385C675.383 556.375 675.258 557.392 674.856 558.313C674.454 559.233 673.793 560.016 672.954 560.568C672.115 561.119 671.133 561.415 670.129 561.419L670.139 561.398ZM670.139 551.764C669.097 551.759 668.086 552.127 667.29 552.8C666.396 553.557 665.837 554.637 665.736 555.804C665.678 556.528 665.799 557.256 666.088 557.922C666.378 558.589 666.827 559.174 667.397 559.625C667.966 560.077 668.638 560.381 669.353 560.512C670.068 560.642 670.804 560.594 671.496 560.372C672.188 560.15 672.814 559.762 673.321 559.24C673.827 558.718 674.196 558.08 674.397 557.382C674.598 556.684 674.624 555.947 674.472 555.236C674.32 554.525 673.996 553.863 673.527 553.308C673.152 552.863 672.692 552.498 672.175 552.233C671.657 551.968 671.092 551.808 670.512 551.764H670.139Z" fill="white"/>
<path opacity="0.3" d="M712.636 606.689L719.329 525.337C719.371 524.817 719.311 524.294 719.151 523.798C718.991 523.302 718.735 522.842 718.397 522.444C718.06 522.047 717.647 521.72 717.183 521.482C716.719 521.245 716.212 521.101 715.692 521.059C715.173 521.015 714.65 521.074 714.154 521.232C713.657 521.391 713.197 521.646 712.8 521.983C712.402 522.32 712.075 522.732 711.837 523.196C711.599 523.659 711.455 524.165 711.414 524.685L704.721 606.037C704.503 608.741 703.618 611.349 702.144 613.627C700.671 615.905 698.655 617.782 696.278 619.089L692.206 621.358L695.863 624.248C697.995 625.927 699.677 628.108 700.762 630.595C701.847 633.082 702.299 635.799 702.079 638.503L693.139 747.276C692.6 753.802 688.497 756.983 682.727 759.521C682.361 759.685 682.059 759.966 681.87 760.319C681.681 760.673 681.614 761.079 681.68 761.475C681.747 761.871 681.942 762.233 682.237 762.505C682.531 762.778 682.907 762.945 683.307 762.981C687.656 763.336 691.968 761.95 695.296 759.128C698.624 756.305 700.695 752.277 701.054 747.929L709.994 639.155C710.216 636.451 709.764 633.734 708.68 631.246C707.595 628.759 705.911 626.579 703.778 624.901L700.121 622L704.193 619.742C706.568 618.432 708.583 616.555 710.056 614.277C711.529 612 712.416 609.393 712.636 606.689Z" fill="white"/>
<path opacity="0.3" d="M820.173 733.115C819.054 728.039 805.089 731.043 802.198 731.509C796.582 732.528 791.084 734.114 785.788 736.243C779.955 738.533 773.18 741.899 767.14 738.419C763.649 736.409 775.77 732.441 776.868 732.037C782.02 730.228 786.993 727.946 791.724 725.221C793.641 724.081 797.35 721.357 795.754 718.591C794.428 716.301 789.673 716.519 786.782 716.871C778.024 717.944 769.432 720.098 761.204 723.284C753.201 726.463 745.365 730.048 737.728 734.026C734.769 735.695 731.551 736.854 728.207 737.455C724.56 737.973 720.095 737.196 718.655 735.176C717.215 733.156 719.07 730.794 719.494 728.764C720.095 726.336 719.843 723.776 718.779 721.512C718.074 719.995 716.892 718.751 715.412 717.969C711.465 715.897 705.498 716.664 701.53 718.301C698.959 719.39 696.609 720.942 694.599 722.88C690.55 726.648 687.709 731.533 686.436 736.917C686.115 738.603 685.465 740.209 684.523 741.643C683.58 743.078 682.365 744.312 680.945 745.277C675.392 749.016 665.218 748.799 657.438 746.924C643.856 743.702 633.496 736.171 630.999 727.666C629.787 723.615 629.197 719.378 623.747 717.793C620.225 716.757 612.848 717.482 614.423 721.937C614.995 723.158 615.742 724.288 616.64 725.293C618.08 727.189 619.614 730.763 615.335 731.913C613.949 732.207 612.526 732.277 611.118 732.12C597.36 731.198 584.7 726.609 576.495 720.145C573.82 718.043 571.552 715.469 569.803 712.551C568.829 710.946 568.477 709.216 567.409 707.631C566.39 706.105 564.951 704.907 563.265 704.181C557.982 701.912 545.571 703.093 544.7 708.066C544.234 710.759 545.912 713.68 546.772 716.239C546.927 716.562 546.963 716.928 546.876 717.275C546.627 717.928 545.643 718.114 544.804 718.166C533.708 718.902 522.944 714.592 513.631 710.096C503.768 705.331 492.911 699.126 479.204 699.053C476.37 698.924 473.534 699.249 470.802 700.016C470.111 700.201 469.468 700.533 468.917 700.99C468.582 701.339 468.36 701.78 468.278 702.257C468.197 702.733 468.261 703.223 468.461 703.663C468.906 704.575 469.568 705.365 470.388 705.963C474.532 709.34 480.334 710.707 485.628 712.448C501.335 717.539 516.522 724.112 530.984 732.079C532.444 732.897 535.034 734.793 532.983 736.222C530.932 737.652 526.767 736.73 524.312 736.326C519.857 735.601 515.578 734.441 511.238 733.353C505.498 731.903 498.806 730.587 492.59 731.789C489.305 732.421 486.374 733.767 484.83 735.591C484.298 736.124 483.948 736.811 483.829 737.555C483.71 738.299 483.828 739.062 484.167 739.734C486.301 743.536 496.029 745.173 501.344 746.986C508.149 749.308 514.802 752.052 521.266 755.201C526.788 757.936 531.916 760.929 537.511 763.613C557.495 773.195 585.405 774.428 610.362 775.36C637.453 776.396 664.669 775.515 691.688 774.013C711.372 772.915 730.693 770.75 749.984 768.202C755.526 767.477 761.038 766.586 766.56 765.829C772.165 765.187 777.709 764.089 783.136 762.546C785.086 762.048 786.905 761.137 788.471 759.873C789.953 758.495 790.419 756.693 787.767 756.175C782.214 755.066 776.495 756.33 771.066 757.314C764.975 758.433 758.938 759.721 752.957 761.178C750.23 761.905 747.463 762.469 744.669 762.867C741.861 763.261 739.002 763.078 736.267 762.328C735.376 762.048 734.402 761.551 734.351 760.764C734.299 759.976 735.045 759.479 735.811 759.179C746.99 754.745 758.862 751.927 770.818 749.337C778.93 747.576 787.187 746.499 795.361 745.121C802.809 743.868 810.662 743.578 817.117 738.854C818.401 738.025 819.399 736.82 819.976 735.404C820.256 734.675 820.324 733.881 820.173 733.115Z" fill="#407BFF"/>
<path opacity="0.3" d="M499.593 691.17C496.557 682.54 485.742 667.26 483.462 676.283C482.24 681.349 499.593 691.17 499.593 691.17Z" fill="#407BFF"/>
<path opacity="0.3" d="M534.04 666.224C530.082 664.152 526.995 660.827 529.316 659.439C531.636 658.051 534.04 666.224 534.04 666.224Z" fill="#407BFF"/>
</g>
</g>
</g>
<defs>
<clipPath id="clip0_3782_550">
<rect width="768" height="800" fill="white"/>
</clipPath>
<clipPath id="clip1_3782_550">
<rect width="771" height="766" fill="white" transform="translate(0 34)"/>
</clipPath>
<clipPath id="clip2_3782_550">
<rect width="768" height="680" fill="white" transform="translate(2 17)"/>
</clipPath>
<clipPath id="clip3_3782_550">
<rect width="518" height="386" fill="white" transform="translate(389 398)"/>
</clipPath>
</defs>
</svg>
