<svg width="865" height="680" viewBox="0 0 865 680" fill="none" xmlns="http://www.w3.org/2000/svg">
<g clip-path="url(#clip0_51_1400)">
<path d="M407 680C603.175 680 762.206 670.751 762.206 659.342C762.206 647.932 603.175 638.683 407 638.683C210.825 638.683 51.7935 647.932 51.7935 659.342C51.7935 670.751 210.825 680 407 680Z" fill="#F5F5F5"/>
<path opacity="0.1" d="M200.534 515.114C200.753 513.47 201.598 511.973 202.893 510.931C204.188 509.888 205.835 509.381 207.495 509.512C223.177 509.275 237.851 520.316 251.463 532.16C254.486 534.769 257.765 537.47 261.154 534.733C262.203 533.868 262.968 532.712 263.353 531.411C263.939 529.285 263.939 527.041 263.353 524.915C262.849 523.159 262.009 521.517 260.88 520.078C254.962 512.322 247.762 508.599 241.918 500.588C238.645 495.998 235.933 491.035 233.839 485.806C232.007 481.207 228.343 473.779 229.809 467.556C231.439 460.11 237.027 460.749 240.416 461.771C251.133 464.964 261.136 472.575 270.223 482.046C279.914 492.12 288.689 504.256 297.428 516.319C300.726 520.9 304.206 525.608 308.42 527.269C312.634 528.929 317.965 526.247 319.742 519.64C321.519 513.034 319.43 505.442 318.991 498.872C318.403 491.032 318.784 483.15 320.126 475.403C320.722 471.308 322.109 467.366 324.212 463.796C328.938 456.898 335.937 459.325 340.517 464.545C344.012 468.911 346.716 473.852 348.504 479.144C353.643 493.768 356.726 509.029 357.664 524.495C358.36 534.076 359.826 544.058 363.783 551.486C370.177 563.494 382.103 562.545 391.355 556.249C407.458 545.299 419.879 520.553 423.195 492.886C424.276 483.871 424.55 474.126 427.848 466.57C430.724 460.037 438.107 455.621 441.716 462.665C443.17 466.187 443.577 470.051 442.889 473.797C442.242 477.507 441.33 481.167 440.159 484.747C438.327 490.952 436.495 502.577 441.441 506.209C442.179 506.655 443.005 506.935 443.863 507.03C444.721 507.124 445.589 507.031 446.406 506.756C462.601 503.398 477.66 488.215 487.553 467.027C491.137 459.053 493.876 450.729 495.724 442.189C496.914 436.97 497.409 431.367 498.728 426.184C499.573 422.105 501.285 418.253 503.748 414.887C510.05 407.369 524.596 410.909 525.42 427.023C525.915 436.349 523.423 445.474 522.508 454.599C521.94 460.293 525.475 460.256 528.113 460.074C540.754 458.796 551.929 446.094 561.841 432.882C573.62 417.169 586.664 396.766 602.749 396.163C606.413 396.036 612.514 396.51 614.712 402.149C615.731 405.604 615.731 409.279 614.712 412.734C611.451 426.202 601.888 433.155 594.56 439.816C573.9 459.12 555.728 480.907 540.461 504.676C538.134 508.326 535.735 514.348 537.951 517.925C538.376 518.606 538.995 519.144 539.73 519.469C540.466 519.795 541.282 519.892 542.073 519.75C549.639 519.166 556.729 513.18 563.636 508.216C570.543 503.252 578.384 498.909 585.62 502.65C587.851 503.984 589.794 505.744 591.338 507.83C592.882 509.917 593.996 512.287 594.615 514.804C595.908 519.216 596.116 523.873 595.22 528.382C592.563 540.773 581.077 546.34 574.756 552.453C566.053 560.817 558.085 569.908 550.94 579.627C544.345 588.624 538.116 598.479 531.521 607.312C507.705 638.938 474.729 643.628 445.417 647.297C413.522 651.275 381.553 649.122 349.842 644.942C326.777 641.876 304.042 635.343 281.526 627.587C273.795 624.795 266.119 621.747 258.535 618.134C250.382 614.265 238.383 611.874 235.25 596.636C234.59 593.351 235.36 590.686 237.54 589.464C244.3 585.631 253.936 590.759 260.293 594.135C269.069 598.807 277.386 605.468 286.399 609.064C287.848 609.773 289.426 610.182 291.039 610.267C292.651 610.352 294.263 610.11 295.779 609.556C297.265 608.935 298.489 607.819 299.242 606.399C300.2 604.548 300.435 602.409 299.901 600.395C299.53 599.308 298.901 598.325 298.069 597.53C281.845 580.966 262.462 567.8 241.057 558.804C234.187 555.866 227.171 553.457 220.557 549.296C215.212 546.003 210.598 541.655 207 536.521C203.923 531.612 198.976 522.944 200.534 515.114Z" fill="#407BFF"/>
<path opacity="0.1" d="M550.94 380.961C549.716 382.225 548.112 383.057 546.371 383.331C544.63 383.606 542.846 383.309 541.29 382.484C539.733 381.659 538.489 380.352 537.744 378.76C537 377.169 536.796 375.379 537.163 373.661C543.484 343.093 557.224 320.865 573.565 332.399C585.766 340.994 566.64 364.701 550.94 380.961Z" fill="#407BFF"/>
<path opacity="0.3" d="M506.606 395.233C511.604 392.485 515.84 388.546 518.938 383.77C522.036 378.993 523.898 373.526 524.358 367.858L536.742 217.572C537.384 209.847 536.398 202.073 533.845 194.75C531.293 187.427 527.231 180.717 521.921 175.051L483.761 134.336C481.661 132.084 480.054 129.423 479.042 126.52C478.029 123.617 477.634 120.536 477.88 117.473L479.712 95.4639L380.949 87.3793L379.117 109.388C378.864 112.451 377.973 115.426 376.499 118.126C375.026 120.825 373.004 123.189 370.561 125.065L326.227 159.064C320.064 163.796 314.961 169.757 311.244 176.567C307.528 183.377 305.281 190.886 304.646 198.611L292.243 348.897C291.774 354.557 292.718 360.246 294.991 365.455C297.264 370.664 300.794 375.233 305.269 378.753C300.271 381.5 296.035 385.438 292.941 390.215C289.846 394.992 287.988 400.46 287.535 406.128L271.725 597.749C270.98 606.859 273.896 615.891 279.831 622.862C285.767 629.832 294.237 634.17 303.382 634.923L466.43 648.264C470.958 648.636 475.515 648.116 479.841 646.734C484.167 645.351 488.178 643.133 491.643 640.207C495.109 637.28 497.961 633.702 500.038 629.676C502.115 625.651 503.376 621.257 503.748 616.747L519.558 425.125C520.042 419.465 519.112 413.774 516.852 408.558C514.592 403.342 511.072 398.764 506.606 395.233Z" fill="#407BFF"/>
<path opacity="0.3" d="M380.977 87.4128L379.576 104.383L478.318 112.469L479.718 95.4997L380.977 87.4128Z" fill="#407BFF"/>
<path opacity="0.3" d="M521.005 178.974L482.845 138.223C482.845 138.223 458.241 139.281 477.349 169.338C493.635 194.76 522.013 190.8 521.005 178.974Z" fill="white"/>
<path opacity="0.2" d="M271.743 597.676C270.998 606.786 273.914 615.818 279.85 622.789C285.785 629.759 294.256 634.097 303.4 634.85L466.448 648.191C470.976 648.563 475.533 648.043 479.859 646.661C484.186 645.278 488.196 643.06 491.662 640.134C495.127 637.207 497.98 633.628 500.057 629.603C502.134 625.578 503.394 621.184 503.766 616.674L271.743 597.676Z" fill="#407BFF"/>
<path opacity="0.3" d="M513.879 182.496C518.14 187.049 521.401 192.437 523.451 198.317C525.502 204.196 526.297 210.438 525.787 216.642L513.402 366.946C513.08 370.809 511.805 374.534 509.689 377.788C507.573 381.042 504.682 383.724 501.275 385.597L486.857 393.554L499.772 403.755C502.828 406.154 505.24 409.27 506.794 412.824C508.348 416.377 508.994 420.259 508.676 424.122L492.866 615.743C492.357 621.953 489.395 627.708 484.631 631.745C479.868 635.782 473.691 637.772 467.456 637.278L304.408 623.937C301.312 623.693 298.294 622.843 295.527 621.437C292.761 620.031 290.299 618.096 288.283 615.742C286.267 613.388 284.736 610.661 283.778 607.718C282.82 604.775 282.453 601.673 282.699 598.588L298.509 406.967C298.825 403.102 300.096 399.374 302.208 396.116C304.321 392.859 307.211 390.173 310.618 388.298L325.036 380.341L312.212 370.139C309.156 367.74 306.744 364.624 305.191 361.071C303.637 357.517 302.991 353.636 303.309 349.773L315.711 199.487C316.226 193.283 318.035 187.254 321.022 181.786C324.009 176.318 328.11 171.531 333.06 167.732C347.716 158.297 386.188 181.785 431.237 185.471C476.286 189.158 504.462 177.77 513.879 182.496Z" fill="#407BFF"/>
<path opacity="0.2" d="M431.146 185.489C386.115 181.839 347.606 158.297 332.95 167.732C358.598 181.785 387.91 190.49 430.431 193.975C472.952 197.461 513.879 182.496 513.879 182.496C504.462 177.77 476.176 189.194 431.146 185.489Z" fill="#407BFF"/>
<path opacity="0.2" d="M292.262 348.897C291.793 354.557 292.737 360.246 295.009 365.455C297.282 370.664 300.813 375.233 305.287 378.753L506.606 395.178C511.604 392.43 515.84 388.492 518.938 383.715C522.036 378.938 523.898 373.472 524.358 367.803L292.262 348.897Z" fill="#407BFF"/>
<path d="M481.783 68.5846L383.317 60.4954C379.193 60.1566 375.576 63.2125 375.238 67.3211L373.274 91.1846C372.936 95.2931 376.005 98.8984 380.13 99.2372L478.595 107.326C482.719 107.665 486.337 104.609 486.675 100.501L488.638 76.6372C488.976 72.5287 485.907 68.9234 481.783 68.5846Z" fill="#407BFF"/>
<path opacity="0.2" d="M385.126 95.5551C385.005 95.5459 384.888 95.5131 384.78 95.4585C384.673 95.4039 384.577 95.3286 384.499 95.237C384.42 95.1455 384.361 95.0393 384.324 94.9248C384.287 94.8103 384.273 94.6896 384.283 94.5697L386.591 65.6987C386.611 65.4567 386.726 65.2323 386.912 65.0749C387.097 64.9174 387.338 64.8399 387.581 64.8592C387.824 64.8786 388.049 64.9933 388.207 65.1781C388.365 65.3629 388.443 65.6027 388.423 65.8447L386.042 94.6974C386.028 94.9298 385.925 95.1481 385.755 95.3075C385.585 95.467 385.36 95.5556 385.126 95.5551Z" fill="white"/>
<path opacity="0.2" d="M402.988 97.0151C402.867 97.0059 402.75 96.973 402.642 96.9185C402.535 96.8639 402.439 96.7886 402.361 96.697C402.282 96.6054 402.223 96.4993 402.186 96.3848C402.149 96.2702 402.135 96.1495 402.145 96.0296L404.527 67.1769C404.55 66.9365 404.666 66.7144 404.851 66.5578C405.035 66.4011 405.274 66.3221 405.516 66.3374C405.636 66.3466 405.752 66.3795 405.859 66.4343C405.966 66.4891 406.06 66.5647 406.137 66.6566C406.214 66.7485 406.272 66.8548 406.307 66.9693C406.342 67.0837 406.353 67.204 406.34 67.3229L403.904 96.1756C403.881 96.4032 403.776 96.6146 403.607 96.7694C403.438 96.9243 403.217 97.0117 402.988 97.0151Z" fill="white"/>
<path opacity="0.2" d="M420.831 98.5481C420.711 98.5389 420.594 98.506 420.486 98.4514C420.378 98.3968 420.283 98.3216 420.204 98.23C420.126 98.1384 420.067 98.0323 420.03 97.9177C419.993 97.8032 419.979 97.6825 419.989 97.5626L422.37 68.7099C422.398 68.4712 422.515 68.2518 422.699 68.096C422.883 67.9402 423.119 67.8596 423.36 67.8704C423.48 67.8796 423.598 67.9125 423.705 67.9671C423.813 68.0216 423.908 68.0969 423.987 68.1885C424.065 68.2801 424.125 68.3862 424.162 68.5008C424.199 68.6153 424.212 68.736 424.202 68.8559L421.821 97.7086C421.812 97.8286 421.779 97.9455 421.724 98.0527C421.669 98.16 421.593 98.2553 421.501 98.3333C421.41 98.4114 421.303 98.4705 421.188 98.5074C421.073 98.5442 420.952 98.558 420.831 98.5481Z" fill="white"/>
<path opacity="0.2" d="M438.694 99.935C438.573 99.9258 438.456 99.893 438.348 99.8384C438.24 99.7838 438.145 99.7086 438.066 99.617C437.988 99.5254 437.929 99.4192 437.892 99.3047C437.855 99.1902 437.841 99.0695 437.851 98.9496L440.232 70.0969C440.256 69.8564 440.372 69.6344 440.557 69.4777C440.741 69.3211 440.98 69.2421 441.222 69.2574C441.341 69.2665 441.458 69.2994 441.565 69.3543C441.672 69.4091 441.766 69.4847 441.843 69.5766C441.92 69.6685 441.977 69.7748 442.012 69.8892C442.047 70.0037 442.059 70.1239 442.046 70.2429L439.664 99.0956C439.658 99.2147 439.627 99.3313 439.574 99.4384C439.521 99.5455 439.447 99.641 439.357 99.7193C439.266 99.7975 439.161 99.8569 439.047 99.894C438.933 99.931 438.813 99.945 438.694 99.935Z" fill="white"/>
<path opacity="0.2" d="M456.464 101.395C456.343 101.386 456.226 101.353 456.118 101.298C456.011 101.244 455.915 101.169 455.837 101.077C455.758 100.985 455.699 100.879 455.662 100.765C455.625 100.65 455.611 100.529 455.621 100.41L458.003 71.5568C458.034 71.3199 458.153 71.1029 458.336 70.9479C458.518 70.7929 458.752 70.7108 458.992 70.7173C459.113 70.7266 459.23 70.7594 459.338 70.814C459.445 70.8686 459.541 70.9438 459.619 71.0354C459.698 71.127 459.757 71.2331 459.794 71.3477C459.831 71.4622 459.845 71.5829 459.835 71.7028L457.453 100.556C457.446 100.676 457.415 100.795 457.361 100.903C457.307 101.011 457.231 101.108 457.139 101.186C457.046 101.265 456.939 101.324 456.823 101.36C456.707 101.396 456.585 101.408 456.464 101.395Z" fill="white"/>
<path opacity="0.2" d="M474.399 102.855C474.279 102.846 474.161 102.813 474.054 102.758C473.946 102.704 473.85 102.628 473.772 102.537C473.694 102.445 473.634 102.339 473.597 102.225C473.56 102.11 473.546 101.989 473.556 101.869L475.865 72.9986C475.888 72.7581 476.004 72.5361 476.189 72.3794C476.373 72.2228 476.612 72.1437 476.854 72.1591C477.094 72.1822 477.315 72.2987 477.469 72.4831C477.624 72.6676 477.699 72.9053 477.678 73.1446L475.315 102.015C475.293 102.243 475.187 102.454 475.018 102.609C474.849 102.764 474.629 102.852 474.399 102.855Z" fill="white"/>
<path opacity="0.2" d="M322.728 298.692C319.943 283.344 297.501 284.439 296.219 299.969L292.188 348.897C291.719 354.557 292.663 360.246 294.936 365.455C297.209 370.664 300.739 375.233 305.214 378.753C300.216 381.5 295.98 385.438 292.886 390.215C289.791 394.992 287.933 400.46 287.48 406.128L271.67 597.749C270.925 606.859 273.841 615.891 279.776 622.861C285.712 629.832 294.183 634.17 303.327 634.923L345.463 638.372C350.105 638.751 354.773 638.062 359.105 636.358C363.437 634.654 367.318 631.981 370.448 628.545C373.579 625.109 375.874 621.003 377.158 616.543C378.442 612.083 378.68 607.388 377.853 602.822L322.728 298.692Z" fill="#407BFF"/>
<path opacity="0.3" d="M484.86 549.606C484.569 553.124 483.238 556.477 481.034 559.241C478.831 562.005 475.854 564.056 472.481 565.135C469.107 566.214 465.488 566.273 462.081 565.303C458.674 564.333 455.633 562.379 453.34 559.688C451.048 556.996 449.609 553.688 449.204 550.182C448.799 546.675 449.447 543.128 451.065 539.988C452.684 536.848 455.201 534.257 458.297 532.542C461.394 530.827 464.932 530.065 468.463 530.353C473.199 530.743 477.586 532.99 480.66 536.6C483.735 540.21 485.245 544.888 484.86 549.606Z" fill="#407BFF"/>
<path opacity="0.3" d="M427.903 480.495C427.699 482.985 426.758 485.358 425.2 487.315C423.641 489.272 421.535 490.725 419.148 491.49C416.761 492.254 414.199 492.296 411.788 491.611C409.377 490.925 407.224 489.542 405.601 487.638C403.979 485.733 402.96 483.392 402.673 480.91C402.387 478.428 402.845 475.918 403.991 473.696C405.137 471.474 406.919 469.64 409.111 468.427C411.303 467.214 413.807 466.676 416.306 466.881C419.654 467.16 422.755 468.749 424.928 471.301C427.102 473.853 428.172 477.159 427.903 480.495Z" fill="#407BFF"/>
<path opacity="0.3" d="M374.903 326.669C372.4 326.785 369.918 326.159 367.771 324.871C365.625 323.582 363.91 321.689 362.843 319.43C361.776 317.171 361.405 314.648 361.777 312.179C362.149 309.71 363.247 307.407 364.933 305.559C366.618 303.712 368.816 302.404 371.247 301.8C373.679 301.196 376.236 301.324 378.595 302.167C380.954 303.01 383.009 304.53 384.501 306.537C385.992 308.543 386.854 310.944 386.976 313.438C387.057 315.097 386.809 316.755 386.246 318.318C385.683 319.882 384.816 321.319 383.695 322.548C382.573 323.777 381.22 324.774 379.711 325.481C378.202 326.188 376.569 326.591 374.903 326.669Z" fill="#407BFF"/>
<path opacity="0.3" d="M409.473 251.17C407.698 251.258 405.937 250.82 404.413 249.911C402.888 249.001 401.669 247.662 400.909 246.062C400.15 244.461 399.884 242.673 400.146 240.922C400.407 239.171 401.185 237.537 402.379 236.227C403.574 234.916 405.132 233.989 406.856 233.561C408.581 233.134 410.394 233.225 412.066 233.825C413.737 234.425 415.193 235.505 416.248 236.929C417.303 238.354 417.91 240.058 417.992 241.826C418.101 244.189 417.267 246.499 415.67 248.251C414.073 250.002 411.845 251.052 409.473 251.17Z" fill="#407BFF"/>
<path opacity="0.3" d="M465.093 425.91C465.006 426.938 464.616 427.917 463.971 428.724C463.326 429.531 462.455 430.129 461.469 430.444C460.482 430.758 459.425 430.774 458.429 430.49C457.434 430.206 456.545 429.635 455.875 428.848C455.205 428.061 454.785 427.095 454.666 426.07C454.548 425.045 454.737 424.009 455.21 423.091C455.682 422.173 456.417 421.415 457.322 420.914C458.227 420.412 459.261 420.188 460.293 420.271C461.679 420.387 462.962 421.046 463.862 422.103C464.762 423.16 465.204 424.529 465.093 425.91Z" fill="#407BFF"/>
<path opacity="0.7" d="M370.195 568.695H369.316C367.913 568.599 366.543 568.227 365.285 567.601C364.027 566.975 362.907 566.106 361.988 565.046C361.084 563.989 360.4 562.764 359.975 561.442C359.551 560.12 359.394 558.727 359.515 557.344C359.685 555.299 360.45 553.349 361.715 551.729C362.98 550.11 364.691 548.893 366.639 548.227C368.587 547.56 370.688 547.473 372.685 547.976C374.682 548.479 376.488 549.55 377.884 551.058C379.28 552.567 380.205 554.448 380.546 556.471C380.887 558.495 380.629 560.573 379.804 562.453C378.979 564.333 377.623 565.933 375.9 567.058C374.177 568.182 372.163 568.783 370.103 568.787L370.195 568.695ZM370.195 548.913C368.112 548.923 366.094 549.641 364.475 550.947C362.856 552.254 361.732 554.071 361.29 556.099C360.847 558.127 361.112 560.245 362.04 562.104C362.969 563.962 364.505 565.449 366.396 566.32C368.288 567.191 370.421 567.394 372.443 566.895C374.465 566.396 376.257 565.225 377.521 563.575C378.786 561.925 379.448 559.895 379.398 557.82C379.348 555.745 378.59 553.749 377.248 552.161C376.466 551.238 375.508 550.479 374.43 549.928C373.351 549.376 372.173 549.044 370.965 548.949L370.195 548.913Z" fill="white"/>
<path opacity="0.7" d="M483.504 355.138H482.863C480.828 354.971 478.943 354.006 477.621 352.457C476.299 350.907 475.648 348.898 475.81 346.871C475.978 344.841 476.948 342.96 478.508 341.642C480.068 340.325 482.089 339.678 484.127 339.845C486.162 340.012 488.047 340.977 489.369 342.526C490.691 344.076 491.342 346.085 491.18 348.112C491.006 350.142 490.039 352.023 488.487 353.35C487.092 354.516 485.326 355.15 483.504 355.138ZM477.184 346.944C477.093 348.185 477.372 349.425 477.986 350.509C478.6 351.592 479.522 352.471 480.635 353.034C481.749 353.598 483.005 353.821 484.245 353.676C485.486 353.53 486.656 353.023 487.608 352.218C488.243 351.682 488.767 351.026 489.148 350.287C489.528 349.549 489.759 348.744 489.828 347.917C489.896 347.089 489.799 346.257 489.544 345.467C489.289 344.677 488.88 343.945 488.341 343.312C487.781 342.698 487.104 342.2 486.349 341.849C485.594 341.498 484.776 341.301 483.944 341.268C483.115 341.198 482.28 341.292 481.487 341.544C480.695 341.797 479.96 342.202 479.325 342.738C478.69 343.274 478.168 343.929 477.788 344.667C477.408 345.404 477.177 346.209 477.11 347.035L477.184 346.944Z" fill="white"/>
<path opacity="0.7" d="M365.139 193.336H364.864C363.918 193.243 363.045 192.788 362.43 192.066C361.814 191.344 361.505 190.412 361.566 189.468C361.613 188.758 361.866 188.077 362.296 187.509C362.726 186.94 363.313 186.51 363.985 186.27C364.658 186.029 365.386 185.99 366.08 186.156C366.774 186.323 367.405 186.688 367.894 187.207C368.383 187.725 368.709 188.375 368.832 189.076C368.955 189.776 368.87 190.498 368.587 191.151C368.304 191.804 367.835 192.36 367.239 192.752C366.643 193.143 365.944 193.353 365.23 193.354L365.139 193.336ZM362.922 189.577C362.887 190.012 362.983 190.447 363.196 190.828C363.41 191.208 363.731 191.518 364.121 191.716C364.511 191.915 364.951 191.995 365.386 191.945C365.82 191.895 366.231 191.718 366.565 191.436C366.899 191.154 367.142 190.78 367.262 190.361C367.383 189.942 367.377 189.496 367.244 189.081C367.111 188.665 366.857 188.298 366.515 188.026C366.173 187.754 365.758 187.589 365.322 187.551C365.03 187.524 364.736 187.555 364.456 187.642C364.177 187.73 363.917 187.872 363.694 188.061C363.47 188.25 363.287 188.481 363.154 188.741C363.022 189.002 362.943 189.286 362.922 189.577Z" fill="white"/>
<path opacity="0.7" d="M446.15 287.852H445.38C444.174 287.757 442.999 287.426 441.922 286.877C440.845 286.328 439.888 285.571 439.107 284.652C438.325 283.732 437.733 282.667 437.367 281.519C437.001 280.37 436.866 279.161 436.971 277.96C437.128 276.198 437.795 274.519 438.892 273.128C439.988 271.737 441.467 270.693 443.149 270.124C444.83 269.555 446.641 269.485 448.362 269.922C450.082 270.36 451.638 271.286 452.84 272.589C454.042 273.891 454.837 275.513 455.13 277.258C455.423 279.003 455.201 280.795 454.49 282.416C453.779 284.037 452.611 285.417 451.127 286.389C449.643 287.36 447.907 287.881 446.131 287.888L446.15 287.852ZM446.15 270.879C444.306 270.871 442.52 271.518 441.112 272.704C439.53 274.038 438.542 275.94 438.364 277.997C438.26 279.273 438.474 280.554 438.986 281.729C439.499 282.903 440.293 283.933 441.3 284.728C442.307 285.524 443.495 286.06 444.759 286.29C446.023 286.519 447.325 286.435 448.549 286.044C449.772 285.653 450.88 284.968 451.775 284.05C452.67 283.131 453.324 282.007 453.679 280.776C454.034 279.546 454.08 278.248 453.811 276.996C453.543 275.744 452.969 274.577 452.14 273.599C451.477 272.816 450.665 272.172 449.749 271.705C448.834 271.238 447.835 270.958 446.809 270.879H446.15Z" fill="white"/>
<path opacity="0.3" d="M521.298 367.639L533.133 224.325C533.208 223.409 533.101 222.488 532.819 221.613C532.536 220.739 532.084 219.928 531.486 219.228C530.889 218.528 530.159 217.952 529.338 217.534C528.518 217.115 527.622 216.861 526.703 216.788C525.784 216.71 524.86 216.814 523.982 217.093C523.104 217.373 522.291 217.822 521.588 218.416C520.885 219.009 520.306 219.735 519.886 220.552C519.465 221.368 519.21 222.26 519.137 223.175L507.302 366.489C506.917 371.253 505.351 375.848 502.745 379.861C500.14 383.874 496.575 387.181 492.371 389.484L485.171 393.481L491.638 398.572C495.407 401.53 498.383 405.371 500.301 409.752C502.219 414.134 503.019 418.92 502.63 423.684L486.82 615.305C485.867 626.802 478.613 632.405 468.408 636.876C467.761 637.165 467.228 637.66 466.893 638.283C466.559 638.906 466.441 639.622 466.558 640.319C466.675 641.015 467.021 641.654 467.542 642.134C468.062 642.614 468.728 642.909 469.434 642.972C477.125 643.597 484.751 641.156 490.635 636.184C496.52 631.212 500.182 624.115 500.817 616.455L516.627 424.833C517.019 420.069 516.22 415.282 514.302 410.9C512.384 406.518 509.406 402.678 505.635 399.722L499.168 394.612L506.367 390.634C510.568 388.326 514.13 385.019 516.736 381.007C519.341 376.994 520.908 372.402 521.298 367.639Z" fill="white"/>
<path opacity="0.3" d="M711.46 590.358C709.482 581.415 684.786 586.708 679.675 587.529C669.744 589.324 660.021 592.119 650.656 595.869C640.342 599.902 628.361 605.833 617.68 599.702C611.506 596.161 632.941 589.172 634.883 588.46C643.992 585.272 652.787 581.252 661.153 576.452C664.543 574.444 671.101 569.644 668.28 564.772C665.935 560.739 657.526 561.122 652.415 561.742C636.927 563.632 621.734 567.426 607.183 573.039C593.031 578.639 579.175 584.956 565.669 591.964C560.437 594.904 554.746 596.946 548.833 598.004C542.385 598.917 534.489 597.548 531.942 593.989C529.396 590.431 532.675 586.27 533.426 582.693C534.489 578.416 534.043 573.906 532.162 569.918C530.915 567.246 528.824 565.053 526.208 563.677C519.228 560.027 508.676 561.377 501.659 564.261C497.113 566.179 492.958 568.913 489.403 572.327C482.242 578.966 477.219 587.572 474.967 597.055C474.4 600.026 473.251 602.855 471.585 605.382C469.919 607.909 467.768 610.084 465.258 611.783C455.438 618.371 437.448 617.988 423.69 614.685C399.672 609.009 381.352 595.741 376.937 580.758C374.793 573.623 373.749 566.159 364.113 563.367C357.884 561.542 344.84 562.819 347.625 570.666C348.636 572.817 349.956 574.809 351.545 576.579C354.092 579.919 356.803 586.215 349.237 588.241C346.787 588.759 344.27 588.882 341.781 588.606C317.452 586.982 295.065 578.897 280.555 567.509C275.824 563.807 271.813 559.273 268.721 554.132C266.999 551.304 266.376 548.256 264.489 545.464C262.686 542.776 260.141 540.666 257.161 539.387C247.818 535.39 225.87 537.47 224.331 546.23C223.507 550.975 226.475 556.121 227.995 560.629C228.268 561.198 228.333 561.843 228.179 562.454C227.739 563.604 225.998 563.932 224.515 564.024C204.894 565.319 185.859 557.727 169.39 549.807C151.949 541.412 132.75 530.481 108.512 530.353C103.501 530.125 98.4846 530.698 93.6548 532.05C92.432 532.375 91.2944 532.961 90.3205 533.766C89.7283 534.38 89.3348 535.157 89.1911 535.996C89.0474 536.836 89.16 537.699 89.5144 538.474C90.3011 540.081 91.4711 541.472 92.922 542.525C100.25 548.475 110.509 550.884 119.871 553.95C147.646 562.918 174.502 574.498 200.076 588.533C202.659 589.975 207.239 593.314 203.611 595.833C199.984 598.351 192.619 596.727 188.278 596.015C180.4 594.738 172.834 592.694 165.158 590.778C155.008 588.223 143.174 585.905 132.182 588.022C126.374 589.135 121.19 591.508 118.46 594.719C117.519 595.659 116.9 596.87 116.689 598.181C116.479 599.491 116.688 600.834 117.288 602.019C121.061 608.717 138.264 611.6 147.662 614.794C159.695 618.885 171.461 623.719 182.891 629.266C192.656 634.084 201.724 639.358 211.617 644.085C246.957 660.966 296.311 663.137 340.443 664.78C388.35 666.605 436.477 665.054 484.255 662.407C519.063 660.473 553.23 656.659 587.342 652.169C597.143 650.892 606.89 649.322 616.654 647.99C626.566 646.858 636.369 644.923 645.966 642.205C649.414 641.329 652.632 639.723 655.401 637.497C658.021 635.069 658.845 631.894 654.155 630.981C644.336 629.029 634.223 631.255 624.623 632.989C613.851 634.96 603.177 637.229 592.6 639.796C587.778 641.077 582.884 642.071 577.944 642.771C572.978 643.465 567.922 643.143 563.086 641.822C561.511 641.329 559.789 640.453 559.697 639.066C559.606 637.679 560.925 636.803 562.28 636.274C582.048 628.463 603.042 623.499 624.184 618.937C638.528 615.834 653.129 613.936 667.584 611.509C680.756 609.301 694.642 608.79 706.056 600.468C708.327 599.007 710.093 596.886 711.112 594.391C711.607 593.106 711.728 591.708 711.46 590.358Z" fill="#407BFF"/>
<path opacity="0.3" d="M144.566 516.465C139.198 501.263 120.072 474.345 116.042 490.24C113.88 499.164 144.566 516.465 144.566 516.465Z" fill="#407BFF"/>
<path opacity="0.3" d="M624.88 546.393C635.102 537.105 647.853 531.576 649.502 539.751C651.041 547.488 624.88 546.393 624.88 546.393Z" fill="#407BFF"/>
<path opacity="0.3" d="M205.48 472.519C198.482 468.869 193.022 463.012 197.126 460.566C201.23 458.121 205.48 472.519 205.48 472.519Z" fill="#407BFF"/>
</g>
<defs>
<clipPath id="clip0_51_1400">
<rect width="916" height="680" fill="white" transform="translate(-51)"/>
</clipPath>
</defs>
</svg>
