<svg width="768" height="766" viewBox="0 0 768 766" fill="none" xmlns="http://www.w3.org/2000/svg">
<g clip-path="url(#clip0_3782_551)">
<path fill-rule="evenodd" clip-rule="evenodd" d="M-400 302L-319.917 311.667C-239.833 321.333 -79.6667 340.667 80.5 408.333C240.667 476 400.833 592 561 650C721.167 708 881.333 708 1041.5 717.667C1201.67 727.333 1361.83 746.667 1441.92 756.333L1522 766V766H1441.92C1361.83 766 1201.67 766 1041.5 766C881.333 766 721.167 766 561 766C400.833 766 240.667 766 80.5 766C-79.6667 766 -239.833 766 -319.917 766H-400V302Z" fill="#9EBBFF"/>
<path opacity="0.8" fill-rule="evenodd" clip-rule="evenodd" d="M1907 0H1842.92C1778.83 0 1650.67 0 1522.5 40.7407C1394.33 79.6296 1266.17 159.259 1138 159.259C1009.83 159.259 881.667 79.6296 753.5 146.296C625.333 212.963 497.167 425.926 369 533.333C240.833 640.741 112.667 640.741 -15.5 612.963C-143.667 587.037 -271.833 533.333 -335.917 507.407L-400 479.63V800H-335.917C-271.833 800 -143.667 800 -15.5 800C112.667 800 240.833 800 369 800C497.167 800 625.333 800 753.5 800C881.667 800 1009.83 800 1138 800C1266.17 800 1394.33 800 1522.5 800C1650.67 800 1778.83 800 1842.92 800H1907V0Z" fill="#ECF2FF"/>
<g clip-path="url(#clip1_3782_551)">
<path d="M9.95387 537.149C9.72667 539.908 8.68642 542.538 6.96465 544.706C5.24287 546.874 2.91689 548.483 0.280743 549.33C-2.35541 550.176 -5.18336 550.222 -7.84554 549.461C-10.5077 548.701 -12.8846 547.168 -14.6758 545.057C-16.4669 542.946 -17.5918 540.351 -17.9082 537.6C-18.2247 534.85 -17.7185 532.067 -16.4537 529.604C-15.1889 527.142 -13.2222 525.109 -10.8023 523.764C-8.38242 522.419 -5.618 521.821 -2.8585 522.047C0.842219 522.353 4.2701 524.115 6.67233 526.947C9.07457 529.779 10.2548 533.448 9.95387 537.149Z" fill="#C6D7FF"/>
<path d="M13.9703 227.739C13.8243 229.512 13.1556 231.203 12.0487 232.597C10.9418 233.991 9.44657 235.025 7.75191 235.569C6.05724 236.113 4.23927 236.143 2.52786 235.654C0.816458 235.165 -0.711557 234.179 -1.86299 232.822C-3.01442 231.465 -3.73756 229.797 -3.94101 228.029C-4.14445 226.261 -3.81905 224.472 -3.00595 222.889C-2.19285 221.305 -0.928554 219.999 0.627089 219.134C2.18273 218.269 3.95986 217.885 5.73382 218.03C8.11285 218.227 10.3165 219.36 11.8608 221.18C13.4051 223.001 14.1638 225.359 13.9703 227.739Z" fill="#ECF2FF"/>
<path opacity="0.7" d="M29.1573 381.87H27.9139C25.9303 381.734 23.9933 381.206 22.2149 380.317C20.4365 379.427 18.8519 378.194 17.5526 376.689C16.2746 375.189 15.3073 373.451 14.707 371.574C14.1067 369.697 13.8853 367.72 14.0557 365.756C14.2972 362.854 15.3783 360.084 17.1672 357.786C18.9561 355.488 21.3753 353.76 24.1296 352.814C26.8838 351.867 29.854 351.744 32.6774 352.457C35.5008 353.171 38.0554 354.692 40.0293 356.833C42.0032 358.975 43.311 361.645 43.7931 364.517C44.2752 367.389 43.9106 370.34 42.744 373.009C41.5774 375.678 39.6592 377.949 37.2235 379.545C34.7878 381.142 31.94 381.995 29.0278 382L29.1573 381.87ZM29.1573 353.788C26.2113 353.802 23.3583 354.821 21.0691 356.676C18.7799 358.53 17.1914 361.11 16.5656 363.989C15.9398 366.868 16.3141 369.875 17.6269 372.513C18.9396 375.15 21.1123 377.262 23.7863 378.498C26.4604 379.735 29.4761 380.023 32.3357 379.314C35.1953 378.606 37.728 376.943 39.5158 374.601C41.3036 372.259 42.2396 369.378 42.1695 366.432C42.0994 363.487 41.0272 360.653 39.13 358.399C38.0244 357.089 36.6698 356.011 35.1447 355.228C33.6195 354.446 31.9542 353.973 30.2452 353.839L29.1573 353.788Z" fill="#9EBBFF"/>
<path d="M379.954 214.149C379.727 216.908 378.686 219.538 376.965 221.706C375.243 223.874 372.917 225.483 370.281 226.33C367.645 227.176 364.817 227.222 362.154 226.461C359.492 225.701 357.115 224.168 355.324 222.057C353.533 219.946 352.408 217.351 352.092 214.6C351.775 211.85 352.281 209.067 353.546 206.604C354.811 204.142 356.778 202.109 359.198 200.764C361.618 199.419 364.382 198.821 367.141 199.047C370.842 199.353 374.27 201.115 376.672 203.947C379.075 206.779 380.255 210.448 379.954 214.149Z" fill="#ECF2FF"/>
<path opacity="0.7" d="M590.262 122.784H588.19C584.884 122.557 581.655 121.677 578.691 120.195C575.727 118.712 573.086 116.657 570.921 114.148C568.791 111.649 567.179 108.751 566.178 105.623C565.178 102.495 564.809 99.1992 565.093 95.9274C565.495 91.0897 567.297 86.4738 570.279 82.6432C573.26 78.8127 577.292 75.9331 581.883 74.3561C586.473 72.779 591.423 72.5727 596.129 73.7623C600.835 74.9519 605.092 77.486 608.382 81.0552C611.672 84.6244 613.852 89.0742 614.655 93.8616C615.459 98.649 614.851 103.567 612.907 108.015C610.962 112.463 607.765 116.248 603.706 118.909C599.646 121.57 594.9 122.992 590.046 123L590.262 122.784ZM590.262 75.9792C585.352 76.0036 580.597 77.7014 576.782 80.7926C572.967 83.8837 570.319 88.1833 569.276 92.9819C568.233 97.7806 568.857 102.792 571.045 107.188C573.233 111.584 576.854 115.103 581.311 117.164C585.767 119.225 590.793 119.704 595.56 118.523C600.326 117.343 604.547 114.572 607.526 110.669C610.506 106.766 612.066 101.963 611.949 97.054C611.832 92.1446 610.045 87.4217 606.883 83.6648C605.041 81.4811 602.783 79.6849 600.241 78.3804C597.699 77.0759 594.924 76.289 592.075 76.0655L590.262 75.9792Z" fill="#C6D7FF"/>
<path d="M614.954 333.149C614.727 335.908 613.686 338.538 611.965 340.706C610.243 342.874 607.917 344.483 605.281 345.33C602.645 346.176 599.817 346.222 597.154 345.461C594.492 344.701 592.115 343.168 590.324 341.057C588.533 338.946 587.408 336.351 587.092 333.6C586.775 330.85 587.281 328.067 588.546 325.604C589.811 323.142 591.778 321.109 594.198 319.764C596.618 318.419 599.382 317.821 602.141 318.047C605.842 318.353 609.27 320.115 611.672 322.947C614.075 325.779 615.255 329.448 614.954 333.149Z" fill="#C6D7FF"/>
<path opacity="0.7" d="M764.231 257.81H762.407C759.498 257.61 756.657 256.836 754.048 255.531C751.44 254.227 749.116 252.419 747.211 250.211C745.336 248.011 743.917 245.461 743.037 242.708C742.156 239.956 741.832 237.055 742.082 234.176C742.436 229.919 744.022 225.857 746.645 222.486C749.269 219.115 752.817 216.581 756.857 215.193C760.896 213.806 765.252 213.624 769.394 214.671C773.535 215.718 777.281 217.948 780.176 221.089C783.071 224.229 784.989 228.145 785.697 232.358C786.404 236.571 785.869 240.899 784.158 244.813C782.447 248.727 779.633 252.058 776.061 254.4C772.489 256.742 768.312 257.993 764.041 258L764.231 257.81ZM764.231 216.622C759.91 216.643 755.725 218.137 752.368 220.857C749.011 223.578 746.681 227.361 745.763 231.584C744.845 235.807 745.394 240.217 747.319 244.085C749.245 247.954 752.431 251.051 756.353 252.864C760.275 254.678 764.698 255.1 768.892 254.061C773.086 253.022 776.801 250.583 779.423 247.149C782.045 243.714 783.418 239.488 783.315 235.168C783.212 230.847 781.64 226.691 778.857 223.385C777.236 221.463 775.249 219.883 773.012 218.735C770.775 217.587 768.333 216.894 765.826 216.698L764.231 216.622Z" fill="#9EBBFF"/>
</g>
<g clip-path="url(#clip2_3782_551)">
<path d="M648 750C758.937 750 848.87 744.75 848.87 738.273C848.87 731.797 758.937 726.546 648 726.546C537.062 726.546 447.13 731.797 447.13 738.273C447.13 744.75 537.062 750 648 750Z" fill="#F5F5F5"/>
<path opacity="0.1" d="M531.243 656.403C531.367 655.47 531.845 654.62 532.577 654.028C533.31 653.437 534.241 653.148 535.18 653.223C544.048 653.088 552.346 659.356 560.044 666.079C561.753 667.56 563.607 669.093 565.524 667.539C566.117 667.049 566.55 666.392 566.767 665.654C567.099 664.447 567.099 663.173 566.767 661.966C566.482 660.97 566.007 660.037 565.369 659.221C562.022 654.818 557.951 652.705 554.646 648.157C552.795 645.552 551.261 642.735 550.077 639.766C549.041 637.155 546.969 632.939 547.798 629.407C548.72 625.18 551.88 625.543 553.797 626.123C559.857 627.936 565.514 632.255 570.652 637.632C576.133 643.35 581.095 650.239 586.037 657.087C587.902 659.687 589.87 662.36 592.253 663.302C594.636 664.245 597.65 662.722 598.655 658.972C599.66 655.222 598.479 650.913 598.231 647.183C597.898 642.733 598.114 638.259 598.873 633.861C599.21 631.536 599.994 629.299 601.183 627.273C603.856 623.357 607.814 624.735 610.404 627.697C612.38 630.176 613.909 632.98 614.921 635.985C617.827 644.286 619.57 652.949 620.101 661.728C620.494 667.167 621.323 672.833 623.561 677.049C627.176 683.866 633.921 683.327 639.153 679.753C648.259 673.538 655.283 659.49 657.158 643.785C657.769 638.668 657.925 633.136 659.79 628.847C661.416 625.139 665.591 622.632 667.632 626.63C668.454 628.63 668.684 630.823 668.295 632.95C667.93 635.056 667.414 637.133 666.752 639.165C665.716 642.687 664.68 649.286 667.477 651.348C667.894 651.601 668.361 651.76 668.846 651.814C669.331 651.868 669.822 651.815 670.284 651.659C679.443 649.752 687.959 641.133 693.553 629.106C695.58 624.58 697.128 619.855 698.173 615.007C698.847 612.044 699.127 608.864 699.873 605.922C700.351 603.607 701.318 601.42 702.711 599.51C706.275 595.241 714.501 597.251 714.967 606.399C715.247 611.692 713.838 616.872 713.32 622.052C712.999 625.284 714.998 625.263 716.49 625.159C723.638 624.434 729.958 617.224 735.563 609.724C742.224 600.804 749.601 589.223 758.697 588.881C760.769 588.808 764.218 589.078 765.462 592.279C766.038 594.24 766.038 596.326 765.462 598.287C763.618 605.932 758.21 609.879 754.066 613.66C742.382 624.618 732.106 636.985 723.473 650.478C722.157 652.549 720.8 655.968 722.053 657.998C722.293 658.385 722.644 658.69 723.059 658.875C723.475 659.06 723.937 659.115 724.384 659.034C728.663 658.703 732.672 655.305 736.578 652.487C740.484 649.67 744.918 647.204 749.01 649.328C750.272 650.085 751.371 651.084 752.244 652.268C753.117 653.453 753.747 654.798 754.097 656.227C754.828 658.731 754.945 661.375 754.439 663.934C752.936 670.968 746.441 674.128 742.867 677.598C737.945 682.346 733.439 687.507 729.399 693.023C725.669 698.131 722.147 703.725 718.417 708.739C704.949 726.691 686.301 729.354 669.725 731.436C651.688 733.694 633.61 732.472 615.677 730.1C602.634 728.359 589.777 724.651 577.044 720.248C572.672 718.663 568.332 716.933 564.043 714.882C559.432 712.686 552.647 711.328 550.875 702.678C550.502 700.814 550.937 699.301 552.17 698.607C555.993 696.432 561.442 699.343 565.037 701.259C570 703.911 574.703 707.692 579.8 709.733C580.619 710.136 581.512 710.368 582.424 710.416C583.335 710.464 584.247 710.327 585.104 710.013C585.945 709.66 586.637 709.027 587.062 708.221C587.604 707.17 587.737 705.955 587.435 704.812C587.225 704.195 586.87 703.637 586.399 703.186C577.225 693.784 566.263 686.31 554.159 681.203C550.274 679.536 546.306 678.168 542.566 675.806C539.543 673.937 536.934 671.469 534.9 668.555C533.159 665.768 530.362 660.847 531.243 656.403Z" fill="#407BFF"/>
<path opacity="0.1" d="M729.399 580.251C728.706 580.969 727.799 581.441 726.815 581.597C725.83 581.753 724.821 581.584 723.941 581.116C723.061 580.648 722.357 579.906 721.936 579.002C721.515 578.099 721.4 577.083 721.608 576.108C725.182 558.756 732.952 546.138 742.193 552.685C749.093 557.564 738.277 571.021 729.399 580.251Z" fill="#407BFF"/>
<path opacity="0.3" d="M704.327 588.353C707.154 586.793 709.55 584.557 711.301 581.846C713.053 579.134 714.106 576.031 714.366 572.814L721.369 487.504C721.733 483.119 721.175 478.706 719.731 474.549C718.288 470.393 715.991 466.584 712.988 463.367L691.408 440.255C690.221 438.977 689.312 437.466 688.74 435.819C688.167 434.171 687.943 432.422 688.083 430.683L689.119 418.19L633.268 413.601L632.232 426.094C632.089 427.832 631.585 429.521 630.752 431.054C629.919 432.586 628.775 433.928 627.394 434.993L602.323 454.292C598.837 456.978 595.952 460.362 593.85 464.228C591.748 468.094 590.478 472.356 590.119 476.741L583.105 562.05C582.84 565.263 583.373 568.492 584.659 571.449C585.944 574.406 587.941 577 590.471 578.998C587.645 580.557 585.249 582.793 583.499 585.504C581.749 588.216 580.699 591.32 580.442 594.537L571.502 703.31C571.08 708.482 572.729 713.609 576.086 717.565C579.443 721.522 584.233 723.985 589.404 724.412L681.608 731.985C684.168 732.196 686.745 731.901 689.192 731.117C691.638 730.332 693.906 729.073 695.866 727.411C697.826 725.75 699.439 723.719 700.613 721.434C701.788 719.149 702.501 716.655 702.711 714.094L711.652 605.321C711.925 602.108 711.4 598.877 710.122 595.917C708.844 592.956 706.853 590.357 704.327 588.353Z" fill="#407BFF"/>
<path opacity="0.3" d="M633.284 413.62L632.492 423.252L688.33 427.843L689.122 418.21L633.284 413.62Z" fill="#407BFF"/>
<path opacity="0.3" d="M712.47 465.594L690.89 442.462C690.89 442.462 676.977 443.063 687.782 460.124C696.992 474.555 713.04 472.307 712.47 465.594Z" fill="white"/>
<path opacity="0.2" d="M571.512 703.269C571.091 708.44 572.74 713.567 576.096 717.524C579.453 721.481 584.243 723.943 589.414 724.371L681.618 731.943C684.179 732.155 686.756 731.86 689.202 731.075C691.649 730.29 693.917 729.031 695.876 727.37C697.836 725.708 699.449 723.677 700.624 721.392C701.798 719.107 702.511 716.613 702.722 714.053L571.512 703.269Z" fill="#407BFF"/>
<path opacity="0.3" d="M708.44 467.594C710.85 470.178 712.694 473.236 713.853 476.574C715.013 479.911 715.463 483.454 715.174 486.976L708.171 572.296C707.989 574.489 707.267 576.603 706.071 578.45C704.874 580.297 703.24 581.82 701.313 582.883L693.159 587.399L700.463 593.19C702.191 594.552 703.555 596.321 704.434 598.338C705.312 600.355 705.678 602.559 705.498 604.751L696.557 713.525C696.269 717.05 694.595 720.316 691.901 722.608C689.207 724.9 685.714 726.029 682.188 725.749L589.984 718.176C588.233 718.037 586.527 717.555 584.962 716.757C583.397 715.959 582.005 714.86 580.865 713.524C579.725 712.188 578.86 710.64 578.318 708.969C577.776 707.299 577.569 705.538 577.707 703.787L586.648 595.014C586.827 592.819 587.545 590.703 588.74 588.854C589.935 587.005 591.569 585.48 593.496 584.416L601.649 579.899L594.397 574.108C592.669 572.746 591.305 570.978 590.427 568.961C589.548 566.944 589.182 564.74 589.362 562.547L596.376 477.238C596.667 473.716 597.69 470.294 599.379 467.19C601.069 464.086 603.387 461.369 606.187 459.213C614.475 453.857 636.231 467.19 661.706 469.282C687.181 471.375 703.115 464.91 708.44 467.594Z" fill="#407BFF"/>
<path opacity="0.2" d="M661.655 469.292C636.19 467.221 614.413 453.857 606.125 459.213C620.629 467.19 637.205 472.131 661.251 474.11C685.296 476.088 708.44 467.594 708.44 467.594C703.115 464.91 687.119 471.395 661.655 469.292Z" fill="#407BFF"/>
<path opacity="0.2" d="M583.115 562.05C582.85 565.263 583.384 568.492 584.669 571.449C585.954 574.406 587.951 577 590.481 578.998L704.327 588.321C707.154 586.761 709.55 584.526 711.301 581.814C713.053 579.103 714.106 576 714.366 572.782L583.115 562.05Z" fill="#407BFF"/>
<path d="M690.29 402.932L634.607 398.34C632.275 398.148 630.23 399.882 630.038 402.215L628.928 415.761C628.737 418.093 630.473 420.139 632.805 420.332L688.487 424.923C690.82 425.116 692.865 423.381 693.056 421.049L694.167 407.503C694.358 405.171 692.622 403.124 690.29 402.932Z" fill="#407BFF"/>
<path opacity="0.2" d="M635.63 418.242C635.562 418.236 635.496 418.218 635.435 418.187C635.374 418.156 635.32 418.113 635.276 418.061C635.231 418.009 635.198 417.949 635.177 417.884C635.156 417.819 635.148 417.75 635.154 417.682L636.459 401.294C636.47 401.156 636.535 401.029 636.64 400.939C636.745 400.85 636.881 400.806 637.018 400.817C637.156 400.828 637.283 400.893 637.373 400.998C637.462 401.103 637.506 401.239 637.495 401.376L636.148 417.755C636.14 417.887 636.082 418.01 635.986 418.101C635.89 418.191 635.762 418.242 635.63 418.242Z" fill="white"/>
<path opacity="0.2" d="M645.731 419.07C645.663 419.065 645.597 419.046 645.536 419.015C645.475 418.984 645.421 418.942 645.377 418.89C645.332 418.838 645.299 418.777 645.278 418.712C645.257 418.647 645.249 418.579 645.255 418.511L646.602 402.133C646.615 401.996 646.68 401.87 646.785 401.781C646.889 401.692 647.024 401.647 647.161 401.656C647.229 401.661 647.295 401.68 647.355 401.711C647.415 401.742 647.469 401.785 647.512 401.837C647.556 401.889 647.588 401.95 647.608 402.015C647.628 402.08 647.634 402.148 647.627 402.216L646.249 418.594C646.237 418.723 646.177 418.843 646.081 418.931C645.986 419.019 645.861 419.068 645.731 419.07Z" fill="white"/>
<path opacity="0.2" d="M655.822 419.941C655.754 419.935 655.687 419.917 655.626 419.886C655.566 419.855 655.511 419.812 655.467 419.76C655.423 419.708 655.389 419.648 655.368 419.583C655.347 419.518 655.34 419.449 655.345 419.381L656.692 403.003C656.708 402.867 656.774 402.743 656.878 402.654C656.982 402.566 657.115 402.52 657.252 402.526C657.32 402.532 657.386 402.55 657.447 402.581C657.508 402.612 657.562 402.655 657.606 402.707C657.65 402.759 657.684 402.819 657.705 402.884C657.726 402.949 657.734 403.018 657.728 403.086L656.381 419.464C656.376 419.532 656.357 419.598 656.326 419.659C656.295 419.72 656.253 419.774 656.201 419.819C656.149 419.863 656.088 419.896 656.023 419.917C655.958 419.938 655.89 419.946 655.822 419.941Z" fill="white"/>
<path opacity="0.2" d="M665.923 420.728C665.855 420.722 665.788 420.704 665.728 420.673C665.667 420.642 665.613 420.599 665.568 420.547C665.524 420.495 665.49 420.435 665.469 420.37C665.449 420.305 665.441 420.236 665.446 420.168L666.793 403.79C666.806 403.654 666.872 403.528 666.976 403.439C667.081 403.35 667.216 403.305 667.353 403.314C667.42 403.319 667.486 403.337 667.547 403.369C667.607 403.4 667.66 403.443 667.704 403.495C667.747 403.547 667.78 403.607 667.8 403.672C667.819 403.737 667.826 403.805 667.819 403.873L666.472 420.251C666.468 420.319 666.451 420.385 666.421 420.446C666.391 420.507 666.349 420.561 666.298 420.605C666.247 420.65 666.187 420.683 666.123 420.704C666.058 420.725 665.99 420.733 665.923 420.728Z" fill="white"/>
<path opacity="0.2" d="M675.972 421.556C675.904 421.551 675.837 421.533 675.777 421.502C675.716 421.471 675.662 421.428 675.617 421.376C675.573 421.324 675.539 421.264 675.519 421.199C675.498 421.134 675.49 421.065 675.495 420.997L676.842 404.619C676.86 404.484 676.927 404.361 677.03 404.273C677.134 404.185 677.266 404.139 677.402 404.142C677.47 404.148 677.536 404.166 677.597 404.197C677.658 404.228 677.712 404.271 677.756 404.323C677.801 404.375 677.834 404.435 677.855 404.5C677.876 404.565 677.884 404.634 677.878 404.702L676.531 421.08C676.528 421.148 676.51 421.216 676.479 421.277C676.449 421.339 676.406 421.393 676.354 421.438C676.301 421.482 676.241 421.516 676.175 421.536C676.109 421.557 676.04 421.564 675.972 421.556Z" fill="white"/>
<path opacity="0.2" d="M686.115 422.385C686.046 422.38 685.98 422.361 685.919 422.33C685.858 422.299 685.804 422.257 685.76 422.205C685.716 422.153 685.682 422.092 685.661 422.027C685.64 421.962 685.632 421.894 685.638 421.826L686.943 405.437C686.957 405.301 687.022 405.175 687.127 405.086C687.231 404.997 687.366 404.952 687.503 404.961C687.639 404.974 687.764 405.04 687.851 405.145C687.938 405.249 687.981 405.384 687.969 405.52L686.633 421.909C686.62 422.038 686.56 422.158 686.464 422.246C686.369 422.334 686.244 422.383 686.115 422.385Z" fill="white"/>
<path opacity="0.2" d="M600.344 533.551C598.769 524.839 586.078 525.461 585.353 534.277L583.074 562.05C582.809 565.263 583.342 568.492 584.628 571.449C585.913 574.406 587.91 576.999 590.44 578.998C587.614 580.557 585.218 582.792 583.468 585.504C581.718 588.216 580.668 591.32 580.411 594.537L571.471 703.31C571.049 708.482 572.698 713.609 576.055 717.565C579.412 721.522 584.202 723.985 589.373 724.412L613.201 726.37C615.826 726.585 618.465 726.194 620.915 725.226C623.365 724.259 625.56 722.742 627.33 720.792C629.1 718.841 630.398 716.51 631.124 713.979C631.85 711.447 631.985 708.782 631.517 706.19L600.344 533.551Z" fill="#407BFF"/>
<path opacity="0.3" d="M692.03 675.982C691.866 677.979 691.113 679.882 689.867 681.451C688.621 683.02 686.937 684.185 685.03 684.797C683.122 685.41 681.075 685.443 679.149 684.893C677.222 684.342 675.502 683.233 674.206 681.705C672.91 680.177 672.095 678.299 671.866 676.309C671.637 674.319 672.004 672.305 672.919 670.523C673.834 668.74 675.258 667.269 677.009 666.296C678.76 665.322 680.761 664.89 682.758 665.053C685.436 665.275 687.917 666.55 689.655 668.6C691.394 670.649 692.248 673.304 692.03 675.982Z" fill="#407BFF"/>
<path opacity="0.3" d="M659.821 636.751C659.705 638.165 659.173 639.512 658.292 640.623C657.411 641.734 656.22 642.559 654.87 642.993C653.52 643.427 652.071 643.45 650.708 643.061C649.344 642.672 648.127 641.887 647.209 640.806C646.292 639.725 645.715 638.396 645.553 636.987C645.391 635.578 645.651 634.153 646.299 632.892C646.947 631.631 647.954 630.59 649.194 629.901C650.434 629.213 651.85 628.907 653.263 629.023C655.156 629.182 656.909 630.084 658.139 631.533C659.368 632.981 659.973 634.858 659.821 636.751Z" fill="#407BFF"/>
<path opacity="0.3" d="M629.849 549.432C628.434 549.498 627.03 549.143 625.816 548.412C624.602 547.68 623.632 546.606 623.029 545.323C622.426 544.041 622.216 542.609 622.426 541.207C622.637 539.806 623.258 538.498 624.211 537.45C625.164 536.401 626.407 535.658 627.782 535.316C629.157 534.973 630.603 535.045 631.937 535.524C633.271 536.003 634.433 536.866 635.277 538.004C636.12 539.143 636.608 540.506 636.677 541.922C636.723 542.864 636.582 543.805 636.264 544.692C635.946 545.58 635.455 546.396 634.821 547.093C634.187 547.791 633.421 548.357 632.568 548.758C631.715 549.159 630.791 549.389 629.849 549.432Z" fill="#407BFF"/>
<path opacity="0.3" d="M649.399 506.576C648.395 506.626 647.399 506.377 646.537 505.861C645.675 505.345 644.985 504.584 644.556 503.676C644.126 502.768 643.976 501.752 644.124 500.758C644.272 499.765 644.712 498.837 645.387 498.093C646.063 497.349 646.944 496.823 647.919 496.58C648.894 496.338 649.919 496.39 650.865 496.73C651.81 497.07 652.633 497.684 653.23 498.492C653.826 499.301 654.17 500.268 654.216 501.272C654.278 502.613 653.806 503.925 652.903 504.919C652 505.913 650.74 506.509 649.399 506.576Z" fill="#407BFF"/>
<path opacity="0.3" d="M680.852 605.766C680.803 606.35 680.582 606.906 680.217 607.364C679.852 607.822 679.36 608.161 678.802 608.34C678.244 608.518 677.646 608.528 677.083 608.366C676.52 608.205 676.018 607.881 675.639 607.434C675.26 606.988 675.022 606.439 674.955 605.857C674.889 605.276 674.995 604.687 675.263 604.166C675.53 603.645 675.946 603.215 676.457 602.93C676.969 602.645 677.554 602.518 678.137 602.566C678.921 602.631 679.647 603.005 680.156 603.605C680.664 604.205 680.915 604.982 680.852 605.766Z" fill="#407BFF"/>
<path opacity="0.7" d="M627.187 686.818H626.689C625.896 686.764 625.121 686.552 624.41 686.197C623.699 685.841 623.065 685.348 622.545 684.746C622.034 684.147 621.647 683.451 621.407 682.701C621.167 681.95 621.079 681.16 621.147 680.375C621.243 679.214 621.676 678.106 622.391 677.187C623.107 676.268 624.074 675.578 625.176 675.199C626.277 674.821 627.465 674.771 628.595 675.057C629.724 675.342 630.746 675.95 631.535 676.806C632.324 677.663 632.847 678.73 633.04 679.879C633.233 681.028 633.087 682.207 632.621 683.275C632.154 684.342 631.387 685.25 630.413 685.888C629.439 686.527 628.3 686.868 627.135 686.87L627.187 686.818ZM627.187 675.589C626.008 675.594 624.867 676.002 623.952 676.743C623.036 677.485 622.401 678.517 622.151 679.668C621.9 680.819 622.05 682.021 622.575 683.076C623.1 684.131 623.969 684.975 625.039 685.47C626.108 685.964 627.314 686.079 628.458 685.796C629.602 685.513 630.615 684.848 631.33 683.911C632.045 682.975 632.419 681.823 632.391 680.645C632.363 679.467 631.934 678.334 631.175 677.433C630.733 676.909 630.191 676.478 629.581 676.165C628.971 675.852 628.305 675.663 627.622 675.609L627.187 675.589Z" fill="white"/>
<path opacity="0.7" d="M691.263 565.593H690.901C689.75 565.498 688.684 564.951 687.937 564.071C687.189 563.191 686.821 562.051 686.912 560.9C687.007 559.748 687.556 558.68 688.438 557.932C689.32 557.184 690.463 556.817 691.616 556.912C692.766 557.007 693.832 557.554 694.58 558.434C695.328 559.314 695.696 560.454 695.604 561.605C695.506 562.757 694.959 563.825 694.081 564.578C693.292 565.24 692.293 565.6 691.263 565.593ZM687.689 560.942C687.638 561.646 687.796 562.35 688.143 562.965C688.49 563.58 689.011 564.079 689.641 564.399C690.271 564.719 690.981 564.845 691.683 564.763C692.384 564.68 693.046 564.393 693.584 563.935C693.943 563.631 694.239 563.259 694.455 562.84C694.67 562.421 694.801 561.963 694.839 561.494C694.878 561.024 694.823 560.552 694.679 560.103C694.535 559.655 694.303 559.239 693.998 558.88C693.682 558.531 693.299 558.249 692.872 558.05C692.445 557.85 691.983 557.738 691.512 557.72C691.043 557.68 690.571 557.733 690.123 557.877C689.675 558.02 689.259 558.25 688.9 558.554C688.541 558.858 688.246 559.23 688.031 559.649C687.816 560.068 687.686 560.524 687.648 560.993L687.689 560.942Z" fill="white"/>
<path opacity="0.7" d="M624.327 473.747H624.172C623.637 473.694 623.143 473.435 622.795 473.026C622.447 472.616 622.272 472.087 622.307 471.551C622.333 471.148 622.477 470.761 622.72 470.439C622.963 470.116 623.295 469.872 623.675 469.735C624.055 469.599 624.467 469.577 624.86 469.671C625.252 469.766 625.609 469.973 625.885 470.267C626.162 470.562 626.346 470.93 626.416 471.328C626.485 471.726 626.437 472.135 626.277 472.506C626.117 472.877 625.852 473.193 625.515 473.415C625.178 473.637 624.783 473.756 624.379 473.757L624.327 473.747ZM623.074 471.613C623.054 471.859 623.108 472.106 623.229 472.323C623.35 472.539 623.531 472.714 623.752 472.827C623.972 472.94 624.221 472.985 624.467 472.957C624.713 472.928 624.945 472.828 625.134 472.668C625.323 472.508 625.46 472.296 625.528 472.058C625.597 471.82 625.593 471.567 625.518 471.331C625.443 471.095 625.299 470.887 625.106 470.732C624.912 470.578 624.678 470.484 624.431 470.463C624.266 470.447 624.099 470.465 623.941 470.515C623.783 470.564 623.637 470.645 623.51 470.752C623.384 470.859 623.28 470.991 623.205 471.138C623.13 471.286 623.085 471.447 623.074 471.613Z" fill="white"/>
<path opacity="0.7" d="M670.139 527.398H669.704C669.022 527.345 668.357 527.157 667.748 526.845C667.14 526.533 666.598 526.104 666.156 525.582C665.714 525.06 665.38 524.455 665.173 523.803C664.965 523.151 664.889 522.465 664.949 521.783C665.037 520.783 665.415 519.83 666.035 519.04C666.655 518.251 667.491 517.658 668.442 517.335C669.393 517.012 670.417 516.972 671.39 517.221C672.363 517.469 673.243 517.995 673.923 518.734C674.602 519.473 675.052 520.394 675.218 521.385C675.383 522.375 675.258 523.392 674.856 524.313C674.454 525.233 673.793 526.016 672.954 526.568C672.115 527.119 671.133 527.415 670.129 527.419L670.139 527.398ZM670.139 517.764C669.097 517.759 668.086 518.127 667.29 518.8C666.396 519.557 665.837 520.637 665.736 521.804C665.678 522.528 665.799 523.256 666.088 523.922C666.378 524.589 666.827 525.174 667.397 525.625C667.966 526.077 668.638 526.381 669.353 526.512C670.068 526.642 670.804 526.594 671.496 526.372C672.188 526.15 672.814 525.762 673.321 525.24C673.827 524.718 674.196 524.08 674.397 523.382C674.598 522.684 674.624 521.947 674.472 521.236C674.32 520.525 673.996 519.863 673.527 519.308C673.152 518.863 672.692 518.498 672.175 518.233C671.657 517.968 671.092 517.808 670.512 517.764H670.139Z" fill="white"/>
<path opacity="0.3" d="M712.636 572.689L719.329 491.337C719.371 490.817 719.311 490.294 719.151 489.798C718.991 489.302 718.735 488.842 718.397 488.444C718.06 488.047 717.647 487.72 717.183 487.482C716.719 487.245 716.212 487.101 715.692 487.059C715.173 487.015 714.65 487.074 714.154 487.232C713.657 487.391 713.197 487.646 712.8 487.983C712.402 488.32 712.075 488.732 711.837 489.196C711.599 489.659 711.455 490.165 711.414 490.685L704.721 572.037C704.503 574.741 703.618 577.349 702.144 579.627C700.671 581.905 698.655 583.782 696.278 585.089L692.206 587.358L695.863 590.248C697.995 591.927 699.677 594.108 700.762 596.595C701.847 599.082 702.299 601.799 702.079 604.503L693.139 713.276C692.6 719.802 688.497 722.983 682.727 725.521C682.361 725.685 682.059 725.966 681.87 726.319C681.681 726.673 681.614 727.079 681.68 727.475C681.747 727.871 681.942 728.233 682.237 728.505C682.531 728.778 682.907 728.945 683.307 728.981C687.656 729.336 691.968 727.95 695.296 725.128C698.624 722.305 700.695 718.277 701.054 713.929L709.994 605.155C710.216 602.451 709.764 599.734 708.68 597.246C707.595 594.759 705.911 592.579 703.778 590.901L700.121 588L704.193 585.742C706.568 584.432 708.583 582.555 710.056 580.277C711.529 578 712.416 575.393 712.636 572.689Z" fill="white"/>
<path opacity="0.3" d="M820.173 699.115C819.054 694.039 805.089 697.043 802.198 697.509C796.582 698.528 791.084 700.114 785.788 702.243C779.955 704.533 773.18 707.899 767.14 704.419C763.649 702.409 775.77 698.441 776.868 698.037C782.02 696.228 786.993 693.946 791.724 691.221C793.641 690.081 797.35 687.357 795.754 684.591C794.428 682.301 789.673 682.519 786.782 682.871C778.024 683.944 769.432 686.098 761.204 689.284C753.201 692.463 745.365 696.048 737.728 700.026C734.769 701.695 731.551 702.854 728.207 703.455C724.56 703.973 720.095 703.196 718.655 701.176C717.215 699.156 719.07 696.794 719.494 694.764C720.095 692.336 719.843 689.776 718.779 687.512C718.074 685.995 716.892 684.751 715.412 683.969C711.465 681.897 705.498 682.664 701.53 684.301C698.959 685.39 696.609 686.942 694.599 688.88C690.55 692.648 687.709 697.533 686.436 702.917C686.115 704.603 685.465 706.209 684.523 707.643C683.58 709.078 682.365 710.312 680.945 711.277C675.392 715.016 665.218 714.799 657.438 712.924C643.856 709.702 633.496 702.171 630.999 693.666C629.787 689.615 629.197 685.378 623.747 683.793C620.225 682.757 612.848 683.482 614.423 687.937C614.995 689.158 615.742 690.288 616.64 691.293C618.08 693.189 619.614 696.763 615.335 697.913C613.949 698.207 612.526 698.277 611.118 698.12C597.36 697.198 584.7 692.609 576.495 686.145C573.82 684.043 571.552 681.469 569.803 678.551C568.829 676.946 568.477 675.216 567.409 673.631C566.39 672.105 564.951 670.907 563.265 670.181C557.982 667.912 545.571 669.093 544.7 674.066C544.234 676.759 545.912 679.68 546.772 682.239C546.927 682.562 546.963 682.928 546.876 683.275C546.627 683.928 545.643 684.114 544.804 684.166C533.708 684.902 522.944 680.592 513.631 676.096C503.768 671.331 492.911 665.126 479.204 665.053C476.37 664.924 473.534 665.249 470.802 666.016C470.111 666.201 469.468 666.533 468.917 666.99C468.582 667.339 468.36 667.78 468.278 668.257C468.197 668.733 468.261 669.223 468.461 669.663C468.906 670.575 469.568 671.365 470.388 671.963C474.532 675.34 480.334 676.707 485.628 678.448C501.335 683.539 516.522 690.112 530.984 698.079C532.444 698.897 535.034 700.793 532.983 702.222C530.932 703.652 526.767 702.73 524.312 702.326C519.857 701.601 515.578 700.441 511.238 699.353C505.498 697.903 498.806 696.587 492.59 697.789C489.305 698.421 486.374 699.767 484.83 701.591C484.298 702.124 483.948 702.811 483.829 703.555C483.71 704.299 483.828 705.062 484.167 705.734C486.301 709.536 496.029 711.173 501.344 712.986C508.149 715.308 514.802 718.052 521.266 721.201C526.788 723.936 531.916 726.929 537.511 729.613C557.495 739.195 585.405 740.428 610.362 741.36C637.453 742.396 664.669 741.515 691.688 740.013C711.372 738.915 730.693 736.75 749.984 734.202C755.526 733.477 761.038 732.586 766.56 731.829C772.165 731.187 777.709 730.089 783.136 728.546C785.086 728.048 786.905 727.137 788.471 725.873C789.953 724.495 790.419 722.693 787.767 722.175C782.214 721.066 776.495 722.33 771.066 723.314C764.975 724.433 758.938 725.721 752.957 727.178C750.23 727.905 747.463 728.469 744.669 728.867C741.861 729.261 739.002 729.078 736.267 728.328C735.376 728.048 734.402 727.551 734.351 726.764C734.299 725.976 735.045 725.479 735.811 725.179C746.99 720.745 758.862 717.927 770.818 715.337C778.93 713.576 787.187 712.499 795.361 711.121C802.809 709.868 810.662 709.578 817.117 704.854C818.401 704.025 819.399 702.82 819.976 701.404C820.256 700.675 820.324 699.881 820.173 699.115Z" fill="#407BFF"/>
<path opacity="0.3" d="M499.593 657.17C496.557 648.54 485.742 633.26 483.462 642.283C482.24 647.349 499.593 657.17 499.593 657.17Z" fill="#407BFF"/>
<path opacity="0.3" d="M534.04 632.224C530.082 630.152 526.995 626.827 529.316 625.439C531.636 624.051 534.04 632.224 534.04 632.224Z" fill="#407BFF"/>
</g>
</g>
<defs>
<clipPath id="clip0_3782_551">
<rect width="771" height="766" fill="white"/>
</clipPath>
<clipPath id="clip1_3782_551">
<rect width="768" height="680" fill="white" transform="translate(2 -17)"/>
</clipPath>
<clipPath id="clip2_3782_551">
<rect width="518" height="386" fill="white" transform="translate(389 364)"/>
</clipPath>
</defs>
</svg>
