<svg xmlns="http://www.w3.org/2000/svg" width="1404" height="582" fill="none"><g clip-path="url(#a)"><path fill="#ECF2FF" d="M1340.95 15.149c-.22 2.76-1.26 5.39-2.99 7.557a13.963 13.963 0 0 1-6.68 4.624c-2.64.846-5.46.892-8.13.131a14.05 14.05 0 0 1-6.83-4.404 14.032 14.032 0 0 1-3.23-7.457c-.31-2.75.19-5.533 1.46-7.996a13.968 13.968 0 0 1 5.65-5.84 13.988 13.988 0 0 1 7.94-1.717 14.01 14.01 0 0 1 12.81 15.102ZM601.954 34.149a14.004 14.004 0 0 1-9.673 12.18 14.004 14.004 0 0 1-14.957-4.272 13.996 13.996 0 0 1-1.778-15.453 14.002 14.002 0 0 1 13.595-7.557 14.014 14.014 0 0 1 12.813 15.102ZM65.97 128.739a9.001 9.001 0 1 1-8.236-9.709 9.01 9.01 0 0 1 8.236 9.709Z"/><path fill="#C6D7FF" d="M102.954 334.149a14 14 0 1 1-12.813-15.102 14.011 14.011 0 0 1 12.813 15.102ZM739.954 522.149a14.003 14.003 0 0 1-9.673 12.181 14.003 14.003 0 0 1-18.189-11.73 13.995 13.995 0 0 1 7.106-13.836 13.998 13.998 0 0 1 7.943-1.717 14.01 14.01 0 0 1 12.813 15.102ZM1368.95 509.149a13.881 13.881 0 0 1-2.99 7.557 13.969 13.969 0 0 1-6.68 4.624c-2.64.846-5.46.892-8.13.131a14.047 14.047 0 0 1-6.83-4.404 14.03 14.03 0 0 1-3.23-7.457 14.015 14.015 0 0 1 7.11-13.836 13.987 13.987 0 0 1 17.47 3.183 14.028 14.028 0 0 1 3.28 10.202Z"/><path fill="#9EBBFF" d="M714.199 120.836h-1.575a19.073 19.073 0 0 1-13.124-6.563 18.827 18.827 0 0 1-3.604-6.48 18.823 18.823 0 0 1-.825-7.368 18.994 18.994 0 0 1 12.76-16.394 18.994 18.994 0 0 1 20.139 5.09A19 19 0 0 1 714.035 121l.164-.164Zm0-35.572a16.406 16.406 0 0 0-14.605 23.719 16.406 16.406 0 1 0 27.237-17.878 16.399 16.399 0 0 0-11.254-5.775l-1.378-.066ZM210.157 166.87h-1.243a15.044 15.044 0 0 1-10.361-5.181 14.868 14.868 0 0 1-3.497-10.933 14.996 14.996 0 0 1 18.621-13.299 15.002 15.002 0 0 1 4.546 27.088 14.99 14.99 0 0 1-8.195 2.455l.129-.13Zm0-28.082a12.946 12.946 0 0 0-12.591 10.201 12.954 12.954 0 0 0 15.77 15.325 12.952 12.952 0 0 0 6.794-20.915 12.962 12.962 0 0 0-8.885-4.56l-1.088-.051Z" opacity=".7"/><path fill="#C6D7FF" d="M19.2 581.836h-1.576A19.077 19.077 0 0 1 4.5 575.273a18.837 18.837 0 0 1-4.43-13.848 19 19 0 0 1 23.588-16.846 18.994 18.994 0 0 1 14.08 15.276A19.002 19.002 0 0 1 19.035 582l.164-.164Zm0-35.572a16.408 16.408 0 1 0 4.025 32.334 16.406 16.406 0 0 0 12.456-16.317 16.412 16.412 0 0 0-3.85-10.176 16.413 16.413 0 0 0-11.254-5.775l-1.378-.066ZM670.262 352.784h-2.072a25.084 25.084 0 0 1-17.269-8.636 24.789 24.789 0 0 1-5.828-18.221 24.998 24.998 0 0 1 43.289-14.872 25.002 25.002 0 0 1-4.676 37.854 24.994 24.994 0 0 1-13.66 4.091l.216-.216Zm0-46.805a21.589 21.589 0 1 0 5.298 42.544 21.589 21.589 0 0 0 11.323-34.858 21.583 21.583 0 0 0-14.808-7.6l-1.813-.086Z" opacity=".7"/><path fill="#9EBBFF" d="M1382.23 348.81h-1.82a22.073 22.073 0 0 1-15.2-7.599 21.872 21.872 0 0 1-5.13-16.035 22.007 22.007 0 0 1 4.57-11.69 21.977 21.977 0 0 1 22.74-7.815 22.045 22.045 0 0 1 10.79 6.418 22.057 22.057 0 0 1 5.52 11.269c.7 4.213.17 8.541-1.54 12.455a22.017 22.017 0 0 1-8.1 9.587 21.986 21.986 0 0 1-12.02 3.6l.19-.19Zm0-41.188a19.007 19.007 0 0 0-18.47 14.962 19.02 19.02 0 0 0 1.56 12.501 18.97 18.97 0 0 0 9.03 8.779 19 19 0 0 0 12.54 1.197 18.97 18.97 0 0 0 10.53-6.912c2.63-3.435 4-7.661 3.9-11.981a19.059 19.059 0 0 0-4.46-11.783 18.957 18.957 0 0 0-5.85-4.65 18.949 18.949 0 0 0-7.18-2.037l-1.6-.076Z" opacity=".7"/></g><defs><clipPath id="a"><path fill="#fff" d="M0 0h1404v582H0z"/></clipPath></defs></svg>